<?xml version="1.0" encoding="UTF-8"?>
<svg id="_레이어_1" data-name="레이어 1" xmlns="http://www.w3.org/2000/svg" viewBox="0 0 1133.86 850.39">
  <defs>
    <style>
      .cls-1 {
        fill: #555656;
        stroke-width: 0px;
      }
    </style>
  </defs>
  <g>
    <polygon class="cls-1" points="581.72 217.08 624.71 174.09 581.14 130.52 535.84 128.9 213.94 452.92 213.94 498.43 437.03 721.51 484.1 721.51 601.3 604.32 558.19 561.22 460.57 658.84 277.32 475.6 558.54 194.38 581.72 217.08"/>
    <path class="cls-1" d="M484.72,723h-48.31l-223.95-223.95v-46.74l.43-.43L535.25,127.4l46.53,1.66,45.03,45.03-45.08,45.08-23.17-22.7-279.13,279.13,181.15,181.15,97.63-97.63,45.2,45.2-118.67,118.68ZM437.64,720.03h45.85l115.71-115.71-41-41-97.63,97.63-185.34-185.34,283.31-283.31,23.18,22.7,40.9-40.9-42.1-42.1-44.07-1.58L215.43,453.53v44.28l222.22,222.22Z"/>
  </g>
  <g>
    <polygon class="cls-1" points="394.13 494.77 437.48 538.12 669.2 306.41 739.7 376.91 606.34 510.28 649.24 553.18 782.76 419.66 855.24 492.13 797.58 549.79 841.13 593.34 919.92 514.56 919.92 470.29 693.05 243.43 647.57 243.43 394.13 494.77"/>
    <path class="cls-1" d="M841.13,595.44l-45.65-45.65,57.66-57.66-70.38-70.38-133.53,133.52-45-45,133.36-133.36-68.41-68.41-231.71,231.71-45.45-45.45,254.92-252.82h46.71l.43.43,227.3,227.3v45.5l-.44.43-79.83,79.83ZM799.68,549.79l41.45,41.45,77.3-77.3v-43.04l-226-226h-44.26l-251.94,249.87,41.24,41.24,231.71-231.71,72.61,72.61-133.36,133.36,40.8,40.8,133.53-133.52,74.58,74.58-57.66,57.66Z"/>
  </g>
</svg>