<?xml version="1.0" encoding="UTF-8"?>
<svg id="_레이어_1" data-name="레이어 1" xmlns="http://www.w3.org/2000/svg" viewBox="0 0 566.93 425.2">
  <defs>
    <style>
      .cls-1 {
        fill: #231815;
        stroke-width: 0px;
      }
    </style>
  </defs>
  <polygon class="cls-1" points="267.26 203.87 267.26 195.34 243.95 195.34 243.95 198.47 262.2 198.47 262.2 203.87 267.26 203.87"/>
  <polygon class="cls-1" points="295.97 203.87 295.97 180.82 291.28 180.82 291.28 188.78 289.09 188.78 289.09 180.82 284.4 180.82 284.4 199.46 275.99 199.46 275.99 183.77 282.38 183.77 282.38 180.82 271.24 180.82 271.24 202.45 284.4 202.45 284.4 203.87 289.09 203.87 289.09 191.9 291.28 191.9 291.28 203.87 295.97 203.87"/>
  <path class="cls-1" d="M250.63,193.66c4.69,0,8.39-2.7,8.39-6.68s-3.7-6.68-8.39-6.68-8.39,2.7-8.39,6.68,3.67,6.68,8.39,6.68ZM250.63,183.09c1.88,0,3.38,1.54,3.38,3.87s-1.42,3.92-3.38,3.92-3.38-1.59-3.38-3.92,1.48-3.87,3.38-3.87Z"/>
  <polygon class="cls-1" points="323.27 203.87 323.27 195.91 299.95 195.91 299.95 199.04 318.26 199.04 318.26 203.87 323.27 203.87"/>
  <path class="cls-1" d="M307.29,194.46c4.66,0,7.82-2.64,7.82-6.11,0-1.48-.6-2.81-1.62-3.84h2.84v-2.84h-6.54v-1.99h-5v1.99h-6.54v2.84h2.84c-1.02,1.02-1.62,2.36-1.62,3.84,0,3.47,3.16,6.11,7.82,6.11ZM307.29,184.43c1.71,0,3.07,1.42,3.07,3.61s-1.28,3.64-3.07,3.64-3.07-1.48-3.07-3.64,1.34-3.61,3.07-3.61Z"/>
  <polygon class="cls-1" points="351.41 180.81 327.81 180.81 327.81 183.94 346.52 183.94 346.52 200.74 343.22 200.74 343.22 188.06 338.68 188.06 338.68 200.74 335.83 200.74 335.83 188.06 331.28 188.06 331.28 200.74 326.96 200.74 326.96 203.87 353.69 203.87 353.69 200.74 351.41 200.74 351.41 180.81"/>
  <polygon class="cls-1" points="323.27 191.19 326.39 191.19 326.39 188.06 323.27 188.06 323.27 180.82 318.26 180.82 318.26 194.77 323.27 194.77 323.27 191.19"/>
  <rect class="cls-1" x="262.2" y="180.81" width="5.06" height="13.39"/>
  <path class="cls-1" d="M214.66,198.98c0,3.21,4.61,5.46,11.94,5.46s11.94-2.25,11.94-5.46c0-1.51-1.03-2.7-2.9-3.53h4.32v-2.98h-10.8v-1.17c5.46-.4,8.53-2.07,8.53-4.23,0-1.05-.68-1.9-1.99-2.56h3.98v-2.84h-10.52v-1.99h-5.12v1.99h-10.52v2.84h3.98c-1.31.65-1.99,1.51-1.99,2.56,0,2.16,3.07,3.84,8.53,4.23v1.17h-10.8v2.98h4.32c-1.88.83-2.9,2.02-2.9,3.53ZM221.69,188.04c-.74-.34-1.05-.82-1.05-1.37s.31-1.02,1.05-1.36c1.08-.51,2.96-.8,4.92-.8s3.84.29,4.92.8c.74.34,1.05.82,1.05,1.36s-.31,1.03-1.05,1.37c-1.08.54-2.93.8-4.92.8s-3.84-.26-4.92-.8ZM221.66,196.37c1.19-.51,3.01-.8,4.95-.8s3.75.28,4.95.8c1.25.54,1.88,1.31,1.88,2.22s-.6,1.68-1.88,2.22c-1.19.51-3.01.8-4.95.8s-3.75-.28-4.95-.8c-1.28-.54-1.88-1.31-1.88-2.22s.62-1.68,1.88-2.22Z"/>
  <path class="cls-1" d="M289.37,220.47l-5.91,4.96-5.87-4.93-.03-.02h-44.29l-18.75,20.49-.03.03v62.24h50.27l6.21,5.2.03.02h24.9l6.24-5.22h49.87v-62.24l-18.78-20.52h-43.87ZM284.39,227.06l5.66-4.73h41.4v59.11h-42.08l-4.98,4.16v-58.53ZM235.07,222.32h41.81l5.65,4.73v58.53l-4.94-4.13-.03-.02h-42.49v-59.11ZM234.54,283.29h42.34l6.51,5.44.06.05,6.59-5.49h41.93l2.93,3.13h-40.86l-6.24,5.22h-8.69l-6.21-5.19-.03-.02h-41.27l2.94-3.13ZM230.39,226.35l2.82-3.09v58.72l-2.82,3.01v-58.64ZM225.71,231.47l2.82-3.09v58.59l-2.82,3.01v-58.51ZM221.04,236.59l2.82-3.09v58.46l-2.82,3.01v-58.38ZM216.36,241.71l2.82-3.09v58.33l-2.82,3.01v-58.25ZM347.34,238.63l2.82,3.08v58.25l-2.82-3.01v-58.32ZM348.95,301.37h-47.47l-6.24,5.22h-23.55l-6.21-5.2-.03-.02h-47.88l2.94-3.13h46.74l6.21,5.2.03.02h19.94l6.24-5.22h46.33l2.94,3.13ZM342.66,233.51l2.82,3.08v58.37l-2.82-3.01v-58.45ZM344.27,296.39h-45.27l-6.24,5.22h-18.59l-6.21-5.19-.03-.02h-45.68l2.94-3.13h44.54l6.21,5.19.03.02h14.99l6.24-5.22h44.13l2.94,3.13ZM337.98,228.4l2.82,3.08v58.5l-2.82-3.01v-58.57ZM339.59,291.4h-43.07l-6.24,5.22h-13.64l-6.21-5.2-.03-.02h-43.47l2.94-3.13h42.34l6.21,5.19.03.02h10.03l6.24-5.22h41.93l2.94,3.13ZM333.3,223.29l2.83,3.09v58.62l-2.83-3.01v-58.7Z"/>
  <polygon class="cls-1" points="257.89 154.54 241.91 154.54 241.91 125.77 305.84 125.77 305.84 132.16 309.04 132.16 309.04 122.57 238.72 122.57 238.72 157.73 257.89 157.73 257.89 154.54"/>
  <rect class="cls-1" x="257.89" y="132.16" width="47.95" height="22.37"/>
  <polygon class="cls-1" points="309.04 157.73 257.89 157.73 257.89 167.32 328.21 167.32 328.21 132.16 309.04 132.16 309.04 157.73"/>
  <path class="cls-1" d="M406.84,186.18c-.77-2.37-2.2-4.31-3.62-6.03-7.31-9.95-12.32-17.48-14.9-22.39-3.6-6.85-4.65-11.76-6.96-22.49l-.06-.27c-.63-2.92-1.34-6.22-2.22-10.12-1.59-7.04-5.46-12.11-11.18-14.66-13.8-7.27-26.96-16.11-34.03-21.46-6.25-4.74-16.74-16.24-16.84-16.35l-.18-.13c-.23-.11-2.41-1.09-6.66-.83-4.25.27-8.59,3.53-10.56,7.93-1.97,4.39.25,9.27,2.64,10.71.19.11.43.26.74.46-2.72,1.34-10.79,4.9-19.54,4.9s-16.82-3.56-19.54-4.9c.31-.2.55-.34.74-.46,2.39-1.43,4.61-6.32,2.64-10.71-1.97-4.4-6.32-7.66-10.56-7.93-4.22-.27-6.42.71-6.69.85l-.11.08-.03.03c-.1.11-10.65,11.66-16.84,16.35-7.06,5.35-20.21,14.18-34,21.45-5.74,2.56-9.62,7.64-11.22,14.67-.9,4-1.65,7.48-2.26,10.28l-.02.1c-2.31,10.74-3.36,15.64-6.96,22.49-3.67,6.99-11.61,18.04-14.83,22.44-1.7,1.74-2.98,3.81-3.69,5.99-3.09,9.51,4.12,16.16,7.09,17.51,3.31,1.5,11.76,2.61,15.27-3.88.76-1.4,1.43-3.4,1.49-3.66,1.36-6.3,5.87-11.84,7.06-13.21,6.45,4.8,10.79,16.46,11.62,31.26.74,13.23-3.98,22.14-8.14,27.34-1.17-1.26-3.71-4.39-5.53-9.37-.71-2.34-2.9-4.7-5.46-5.86-1.89-.86-4.96-1.51-8.79.25-2.84,1.31-4.92,3.6-6.02,6.62-1.25,3.46-1.05,7.53.54,10.89.27.57.6,1.13.97,1.68l-.05.03.32.48c.07.1,6.75,10.27,10.14,20.27,1.22,3.6,2.32,7.71,3.49,12.1,2.26,8.42,5.26,18.95,8.54,25.61,8.77,17.83,20.95,29.59,39.5,38.14,22.73,10.47,45.43,10.47,52.9,10.47,17.95,0,34.7-3.52,49.79-10.47,18.41-8.48,31.08-20.77,39.89-38.68,3.18-6.47,8.17-25.13,8.17-25.13,1.16-4.34,2.26-8.43,3.48-12.03,3.52-10.38,9.98-20.15,10.05-20.24.6-.87,1.03-1.58,1.33-2.22,1.59-3.36,1.79-7.43.54-10.89-1.1-3.02-3.18-5.31-6.02-6.62-3.83-1.76-6.89-1.11-8.79-.25-2.45,1.11-4.43,3.3-5.15,5.69-1.78,4.91-4.56,8.21-5.83,9.55-2.88-3.61-9.13-13.2-8.59-27.83.55-14.74,4.72-25.37,12.06-30.78,1.5,1.71,4.93,6.14,7.18,13.09.21,1.23.67,2.5,1.36,3.78,3.51,6.48,11.96,5.38,15.28,3.88,2.97-1.35,10.18-8,7.09-17.51ZM301.75,80.33c1.63-3.65,5.17-6.34,8.59-6.56.45-.03.87-.04,1.27-.04,2.23,0,3.6.41,4.06.57,1.24,1.36,10.83,11.79,16.8,16.31,5.82,4.41,16.01,11.36,27.38,17.85-5.65-.11-10.38,2.03-12.62,4.29-5.45,5.52-5.74,10.96-5.28,14.82-4.88-7.11-12.07-16.74-19.51-23.67-13.34-12.43-17.57-14.97-18.97-15.81-1.63-.98-3.14-4.57-1.72-7.76ZM355.93,131.55s-1.69-2.92-.38-5.6c1.38-2.82,4.12-3.55,6.24-3.02,2.42.61,7.07,3.98,6.03,10.56-1.06,6.69-8.22,7.57-12.27,7.04-2.72-.36-6.73-2.1-9.07-5.84-.26-.46-.71-1.33-.75-1.41-.27-.59-.47-1.17-.63-1.77-.66-2.48-1.32-5.75-.65-9.15,1.39,1.14,5.93,5.05,9.54,10.42l.11.17,1.93-1.24-.1-.17ZM353.46,124.93c-.36.74-.6,1.53-.71,2.34-3.05-3.62-6.01-6.1-7.6-7.31.78-1.99,2-3.82,3.73-5.57.24-.24.51-.48.8-.7,2.84,2.97,6.27,5.41,8.81,7.01-2.19.56-3.96,2.05-5.02,4.23ZM234.47,90.61c5.97-4.53,15.56-14.95,16.8-16.31.65-.24,2.39-.72,5.33-.53,3.42.22,6.95,2.92,8.59,6.56,1.43,3.19-.09,6.78-1.71,7.76-1.39.83-5.63,3.37-18.97,15.81-7.5,6.99-14.68,16.72-19.54,23.91.51-3.94.26-9.49-5.25-15.06-1.96-1.98-6.33-4.3-12.19-4.3-.14,0-.29,0-.43,0,11.38-6.49,21.57-13.44,27.38-17.85ZM211.38,125.95c1.31,2.69-.31,5.48-.38,5.6l-.1.17,1.94,1.24.11-.17c3.61-5.38,8.15-9.29,9.54-10.42.67,3.41,0,6.67-.65,9.15-1.45,5.44-6.43,8.48-10.45,9.01-4.06.54-11.21-.34-12.27-7.04-1.04-6.55,3.58-9.93,6.01-10.55h.02c.42-.11.86-.17,1.31-.17,1.01,0,3.52.31,4.93,3.18ZM208.45,120.7c2.53-1.6,5.97-4.05,8.8-7.01.3.22.56.46.8.7,1.73,1.75,2.95,3.57,3.73,5.57-1.33,1.02-4.45,3.58-7.6,7.32-.11-.81-.35-1.6-.72-2.34-1.06-2.18-2.83-3.66-5.02-4.23ZM181.51,195.61l-.06.35c-.19.9-.54,1.82-1.04,2.75-2.74,5.06-9.57,4.09-12.27,2.87-2.47-1.12-8.44-6.67-5.84-14.67.47-1.43,1.2-2.78,2.19-4.02.36-.44.84-.99.98-1.11l.04-.03c1.49-1.49,3.33-2.68,5.34-3.43,1.8-.68,3.72-1.02,5.7-1.02.66,0,1.33.04,2,.11-.78,2.18-3.29,7.95-6.91,12.13l-.14.16,1.86,1.45.13-.16s1.99-2.52,4.48-1.66c1.49.51,2.71,1.67,3.28,3.12.37.94.46,2.01.27,3.16ZM183.2,191.11c-.88-1.85-2.53-3.32-4.48-3.98-.62-.21-1.25-.31-1.87-.31-.07,0-.14,0-.2,0,2.3-3.57,3.62-7.09,4.23-9,2.13.51,4.22,1.37,6.21,2.56.66.39,1.31.8,1.97,1.23-1.36,1.57-3.77,4.74-5.86,9.51ZM188.83,237.47c1.71,3.12,3.36,5.04,4.11,5.84-2.27,2.43-4.76,4.25-7.02,5.14-.4.16-.82.29-1.27.42-.65-2.65-2.01-5.15-3.13-6.9.95.08,1.86-.03,2.84-.32,1.96-.59,3.67-2.2,4.47-4.18ZM171.31,243.06c-1.33-2.81-1.5-6.21-.45-9.1.88-2.42,2.54-4.25,4.81-5.3,1.29-.6,2.58-.9,3.82-.9,1.06,0,2.09.22,3.04.65,1.96.89,3.69,2.72,4.2,4.44,1.04,3.51-1.16,5.95-3.05,6.56-2.3.74-3.96.05-5.73-2.38l-.12-.17-1.92,1.4.14.17c.21.24,4.99,5.86,6.3,10.84-4.62.35-9.13-2.18-11.04-6.21ZM380.5,232.72c.53-1.8,2.03-3.45,3.9-4.3,1.46-.66,3.83-1.15,6.86.25,2.27,1.04,3.93,2.87,4.81,5.3,1.05,2.89.88,6.29-.45,9.1-1.91,4.03-6.43,6.55-11.03,6.21,1.32-5.01,6.25-10.78,6.3-10.84l.15-.17-1.92-1.4-.12.17c-1.95,2.67-3.41,2.81-5.75,2.11-2.06-.62-3.72-3.08-2.73-6.43ZM378.39,237.34c.75,1.97,2.29,3.46,4.18,4.03,1.15.35,2.08.51,2.9.52-1.13,1.77-2.52,4.3-3.18,6.98-.47-.13-.89-.26-1.28-.42-2.25-.89-4.73-2.71-7.01-5.14.99-1.01,2.74-3.01,4.39-5.97ZM361.55,213.63c-.61,20.19,10.51,33.78,18.6,36.98,3.68,1.45,7.71,1.35,11.16-.28-2.27,4-5.24,9.76-7.17,15.44-1.24,3.67-2.35,7.8-3.52,12.17l-.33,1.23c-2.05,7.67-4.59,17.21-7.68,23.49-8.56,17.41-20.89,29.35-38.78,37.6-14.78,6.81-31.2,10.26-48.81,10.26-7.34,0-29.66,0-51.92-10.26-18.03-8.31-29.87-19.73-38.39-37.05-3.19-6.49-6.16-16.88-8.39-25.21l-.02-.08c-1.17-4.36-2.27-8.47-3.51-12.13-1.93-5.68-4.9-11.43-7.17-15.44,3.45,1.63,7.48,1.74,11.16.28,7.51-2.97,19.09-15.51,18.16-36.5-.8-18.08-6.09-29.43-16.66-35.73-6.03-3.6-12.51-4.39-18.24-2.24-.22.08-.44.17-.66.27,3.76-5.3,8.6-12.43,11.3-17.56,3.75-7.13,4.82-12.13,7.18-23.08l.02-.08c.64-2.96,1.36-6.31,2.26-10.28,1.3-5.73,4.29-10.03,8.67-12.44v.02s1.25-.65,1.25-.65c.72-.32,1.48-.6,2.25-.82,4.18-1.19,9.21-.81,12.91.95-4.98,5.02-11.96,8.58-12.26,8.73-3.64,1.84-7.16,6.14-6.13,12.67,1.34,8.45,9.98,9.62,14.88,8.99,3.23-.42,7.99-2.51,10.77-6.97h0c.12-.19,11.61-19.06,23.62-30.26,6.76-6.3,12.04-10.86,15.68-13.56,1.5.83,10.8,5.72,21.7,5.72s20.2-4.89,21.7-5.72c3.65,2.69,8.92,7.26,15.68,13.56,9.3,8.67,18.23,21.78,22.73,28.83,3.09,4.97,7.01,7.8,11.67,8.41,4.89.64,13.54-.53,14.87-8.99,1.04-6.53-2.51-10.78-6.18-12.57-.07-.04-7.16-3.73-12.21-8.82,3.7-1.77,8.73-2.15,12.91-.96.8.23,1.9.66,2.25.82.34.15.51.24.71.34l.05.03c4.65,2.36,7.82,6.76,9.17,12.71.93,4.12,1.71,7.73,2.27,10.37,2.36,10.95,3.43,15.94,7.18,23.07,2.69,5.12,7.54,12.26,11.3,17.56-.22-.1-.44-.18-.66-.27-5.73-2.15-12.21-1.36-18.25,2.24-11.14,6.64-16.58,17.85-17.1,35.26ZM383.73,191.11c-2.09-4.76-4.5-7.93-5.86-9.51.64-.42,1.3-.83,1.97-1.23,1.99-1.19,4.08-2.05,6.21-2.56.61,1.91,1.93,5.43,4.24,9-.7-.02-1.39.08-2.08.31-1.95.67-3.6,2.14-4.48,3.98ZM398.79,201.57c-2.69,1.22-9.53,2.19-12.27-2.86-.46-.86-.86-1.95-1.07-2.91-.2-1.23-.12-2.45.23-3.35.57-1.45,1.79-2.61,3.28-3.12.39-.13.78-.2,1.16-.2,1.84,0,3.26,1.78,3.32,1.86l.13.16,1.86-1.45-.14-.16c-3.62-4.19-6.13-9.95-6.91-12.13,2.7-.3,5.29,0,7.7.91,2.01.75,3.85,1.94,5.33,3.42,0,0,.53.57,1.03,1.15.99,1.24,1.73,2.59,2.19,4.02,2.6,8-3.37,13.55-5.84,14.67Z"/>
  <path class="cls-1" d="M307.66,248.88c2.56-.25,5.99-.6,9.31-.97.11.65.2,1.26.25,1.82l2.65-.79c-.31-2.78-1.48-6.89-3.01-10.09l-2.42.76c.78,1.73,1.48,3.81,1.99,5.76-1.61.13-3.25.29-4.78.4,1.26-4.64,2.54-10.85,3.27-16.15l-3.1-.4c-.49,5.25-1.64,11.93-2.87,16.78l-1.66.11.36,2.76Z"/>
  <path class="cls-1" d="M300.1,234.62c-.25,2.49-.72,5.58-1.14,7.6l2.67.45.18-.97h3.21c-.27,3.28-.63,4.71-1.05,5.14-.27.22-.47.27-.85.27-.49,0-1.55-.02-2.6-.11.47.74.79,1.82.83,2.65,1.17.02,2.31.04,2.98-.04.81-.11,1.35-.34,1.88-.92.76-.85,1.17-3.1,1.57-8.3.04-.36.07-1.08.07-1.08h-5.65c.11-.72.22-1.46.31-2.2h5.27v-7.53h-8.3v2.49h5.72v2.56h-5.09Z"/>
  <path class="cls-1" d="M304.67,260.53h9.15v-2.02c1.05,1.21,2.31,2.31,3.63,3.14.47-.63,1.46-1.59,2.09-2.04-2.27-1.14-4.4-3.23-5.47-5.29h-7.94v2.47h6.35c.36.52.76,1.05,1.19,1.55h-9v2.2Z"/>
  <path class="cls-1" d="M300.5,269.37c.65-.4,1.32-.87,1.97-1.41v3.54h-3.21v2.4h19.85v-2.4h-2.98v-3.63c.56.43,1.17.81,1.77,1.14.45-.65,1.41-1.64,2.04-2.11-2.4-1.01-4.6-2.92-5.65-4.91h-8.61v1.61l-2.2-.69c-1.03,1.82-2.94,3.48-4.96,4.46.58.47,1.55,1.5,1.97,2ZM306.35,271.5h-1.53v-2.69h1.53v2.69ZM310.01,271.5h-1.57v-2.69h1.57v2.69ZM313.64,271.5h-1.57v-2.69h1.57v2.69ZM305.68,264.34v.13h7.07c.58.79,1.26,1.55,2.02,2.27h-10.99c.72-.74,1.37-1.55,1.91-2.4Z"/>
  <path class="cls-1" d="M300.95,261.88c1.93-1.37,3.95-3.61,5.13-5.92l-2.69-.79c-.96,1.86-2.69,3.61-4.53,4.73.61.45,1.64,1.46,2.09,1.97Z"/>
  <path class="cls-1" d="M259.29,230.51c.02-.47.04-.92.07-1.28h-3.05c-.16,2.96.16,13.14-8.79,18.1.9.63,1.77,1.43,2.24,2.13,4.73-2.89,7.09-7.22,8.3-11.26,1.26,4.13,3.77,8.75,8.84,11.26.43-.72,1.23-1.64,2.06-2.27-8.37-3.93-9.49-13.59-9.67-16.69Z"/>
  <path class="cls-1" d="M258.91,262.59h6.1v8.77c0,.36-.13.49-.54.49-.29.02-1.12.02-2,0v-7.96h-8.64v9.71h2.42v-1.14h5.56c.27.7.52,1.53.58,2.09,1.93,0,3.23-.07,4.1-.52.9-.43,1.19-1.21,1.19-2.65v-16.93h-8.79v8.14ZM259.97,270.51h-3.7v-1.39h3.7v1.39ZM259.97,267.21h-3.7v-1.35h3.7v1.35ZM261.45,256.38h3.57v1.19h-3.57v-1.19ZM261.45,259.36h3.57v1.32h-3.57v-1.32Z"/>
  <path class="cls-1" d="M257.36,254.45h-8.59v20.1h2.65v-12h5.94v-8.1ZM254.87,260.64h-3.45v-1.28h3.45v1.28ZM254.87,257.57h-3.45v-1.19h3.45v1.19Z"/>
  <path class="cls-1" d="M436.63,212.31c0-84.45-68.71-153.16-153.16-153.16s-153.17,68.71-153.17,153.16,68.71,153.17,153.17,153.17,153.16-68.71,153.16-153.17ZM283.47,363.07c-83.13,0-150.76-67.63-150.76-150.77S200.34,61.55,283.47,61.55s150.75,67.63,150.75,150.76-67.63,150.77-150.75,150.77Z"/>
  <path class="cls-1" d="M283.47,8.45c-112.57,0-204.15,91.58-204.15,204.15s91.58,204.15,204.15,204.15,204.15-91.58,204.15-204.15S396.03,8.45,283.47,8.45ZM283.47,414.33c-111.24,0-201.74-90.5-201.74-201.73S172.23,10.86,283.47,10.86s201.73,90.5,201.73,201.74-90.5,201.73-201.73,201.73Z"/>
  <polygon class="cls-1" points="129.24 168.11 115.97 163.58 120.76 149.55 134.03 154.08 135.78 148.96 105.16 138.51 103.41 143.63 116.14 147.98 111.35 162.01 98.62 157.66 96.9 162.7 127.52 173.15 129.24 168.11"/>
  <path class="cls-1" d="M123.1,137.42c2.86,1.66,6.11,2.66,9.33,2.66,4.8,0,9.54-2.22,12.76-7.77,2.36-4.06,2.9-8.31,1.57-12.3-1.24-3.74-4.15-7.09-8.17-9.43-4.46-2.59-8.96-3.35-13-2.2-3.72,1.06-6.86,3.65-9.08,7.47-4.54,7.81-1.83,16.68,6.59,21.57ZM120.77,118.07c1.52-2.62,3.78-4.23,6.54-4.66.49-.08,1-.11,1.51-.11,2.16,0,4.47.67,6.66,1.94,5.09,2.96,9.22,8.37,5.54,14.7-1.6,2.76-3.89,4.33-6.8,4.67-2.6.3-5.63-.46-8.54-2.15-2.96-1.72-4.99-3.98-5.87-6.53-.88-2.55-.54-5.27.96-7.86Z"/>
  <polygon class="cls-1" points="158.58 111.82 141.45 96.72 168.6 100.46 171.91 96.71 147.64 75.31 144.18 79.23 161.34 94.37 134.09 90.66 130.73 94.48 155 115.88 158.58 111.82"/>
  <path class="cls-1" d="M174.66,88.23c.98.22,1.95.34,2.93.34,3.04,0,6.04-1.08,8.8-3.21,3.13-2.4,5.12-5.54,5.54-8.65l2.02,2.35,3.61-2.77-10.54-13.74-11.64,8.93,2.92,3.81,7.78-5.96c2.46,4.42,1.66,8.91-2.16,11.84-5.69,4.36-11.48.99-14.71-3.23-2.11-2.75-3.27-5.53-3.36-8.04-.1-2.84,1.17-5.3,3.77-7.3,3.68-2.82,7.62-2.76,10.82.17l.4.37,4.12-3.59-.49-.46c-5.15-4.88-11.72-5.11-17.57-.62-7.66,5.88-8.51,14.62-2.22,22.82,2.82,3.68,6.28,6.08,9.99,6.93Z"/>
  <rect class="cls-1" x="195.32" y="41.74" width="5.37" height="32.36" transform="translate(-3.11 103.87) rotate(-29.17)"/>
  <polygon class="cls-1" points="219.16 65.27 215.24 55.3 217.76 49.71 233.95 59.46 240.57 56.86 219.97 44.83 227.79 27.11 221.04 29.76 212.79 49.07 207.32 35.16 202.36 37.11 214.2 67.22 219.16 65.27"/>
  <path class="cls-1" d="M254.86,49.76c2.01,2.38,5.02,3.59,8.96,3.59.78,0,1.6-.05,2.45-.14,5.45-.6,9.1-3.34,10.28-7.69.58-2.11.36-4.78.1-7.12l-2.11-19.06-5.42.6,2.05,18.49c.5,4.55.46,9.05-5.93,9.76-6.31.7-7.28-3.23-7.82-8.05l-2.07-18.66-5.43.6,2,18.01c.35,3.17.79,7.11,2.95,9.69Z"/>
  <polygon class="cls-1" points="290.82 29.04 304.1 53.02 309.08 53.42 311.67 21.16 306.45 20.74 304.61 43.55 291.25 19.52 286.18 19.11 283.59 51.37 288.99 51.81 290.82 29.04"/>
  <rect class="cls-1" x="305.63" y="37.23" width="32.36" height="5.37" transform="translate(212.69 345.28) rotate(-77.41)"/>
  <polygon class="cls-1" points="340.27 62.31 362.77 36.07 357.35 34.1 341.02 53.82 340.96 28.12 335.46 26.11 335.86 60.71 340.27 62.31"/>
  <polygon class="cls-1" points="373.59 79.22 376.04 74.95 360.62 66.11 365.17 58.18 379.29 66.27 381.74 61.99 367.62 53.9 371.72 46.74 386.69 55.31 389.22 50.88 369.6 39.64 353.51 67.71 373.59 79.22"/>
  <path class="cls-1" d="M381.66,85.57l8.35-9.86,4.51,3.82c.69.58,2.52,2.13,3.03,3.19.94,2.01-.27,3.81-1.55,5.72-.2.31-.41.61-.6.91-1.2,1.89-1.83,3.12-2.37,5.41l-.09.36,5.33,4.51-.13-1.49c-.19-2.16,1.2-4.43,2.54-6.63,1.66-2.7,3.37-5.5,2.13-8.21,2.85.72,5.86-.32,8.07-2.93,1.53-1.8,2.33-3.61,2.44-5.52.27-4.07-2.19-6.75-4.89-9.04l-9.92-8.41-20.92,24.69,4.06,3.44ZM399.42,64.61l4.45,3.77c3.19,2.7,5.59,5.21,2.71,8.6-2.25,2.66-4.73,2.59-8.03-.21l-5.49-4.65,6.36-7.51Z"/>
  <path class="cls-1" d="M417.86,109.54c-1.12.93-2.4,1.18-3.79.76-1.23-.37-2.46-1.26-3.48-2.49-3.08-3.73-2.99-6.85.26-10.11l.45-.45-4.06-3.77-.42.41c-4.99,4.89-5.05,10.84-.17,16.76,1.99,2.42,4.43,4.12,6.87,4.8.81.22,1.62.34,2.41.34,2.02,0,3.95-.73,5.69-2.16,5.58-4.6,3.2-10.18,1.09-15.13l-.48-1.14c-1.76-4.17-2.07-5.1-.32-6.54,1.04-.86,2.18-1.1,3.39-.73,1.06.33,2.16,1.14,3.11,2.29,2.53,3.07,2.48,5.74-.13,8.41l-.43.44,3.84,3.68.42-.38c1.38-1.25,2.31-2.72,2.94-4.6,1.13-3.36.12-6.89-3.07-10.77-3.16-3.83-8.67-6.79-13.85-2.53-3.4,2.8-3.98,6.21-1.89,11.04l1.6,3.7c1.23,2.82,2.63,6.01.02,8.16Z"/>
  <rect class="cls-1" x="416.16" y="115.15" width="32.36" height="5.37" transform="translate(4.32 250.52) rotate(-32.47)"/>
  <polygon class="cls-1" points="451.02 128.1 426.44 140.07 428.81 144.94 453.39 132.97 457.44 141.29 461.95 139.09 451.43 117.5 446.92 119.7 451.02 128.1"/>
  <polygon class="cls-1" points="435.74 162.37 437.33 167.45 449.74 163.58 471.89 169.57 469.98 163.46 454.31 159.48 464.93 147.28 463.04 141.23 448.16 158.49 435.74 162.37"/>
  <path class="cls-1" d="M102.12,215.9c.05,3.3.41,7.02,3.95,9.48,1.64,1.13,3.65,1.72,5.82,1.72.06,0,.13,0,.19,0,2.99-.05,5.46-1.03,7.16-2.84,1.74-1.86,2.64-4.57,2.59-7.85l-.21-12.63-32.07.52.09,5.38,12.36-.2.11,6.42ZM116.78,209.24l.07,4.32c.08,4.83-.22,8-4.94,8.08-1.2.03-2.89-.27-3.98-1.77-.87-1.22-.91-3.66-.93-4.58l-.1-5.9,9.87-.16Z"/>
  <path class="cls-1" d="M109.36,252.99c1.73,2.34,4.69,3.43,8.02,2.82,2.3-.42,4.05-1.31,5.34-2.7,2.76-2.95,2.56-6.55,1.93-10.01l-2.33-12.68-31.55,5.79.95,5.2,12.59-2.31,1.06,5.76c.16.88.59,3.21.32,4.35-.54,2.12-2.6,2.75-4.78,3.41-.35.11-.69.21-1.03.32-2.11.7-3.37,1.25-5.22,2.66l-.3.23,1.25,6.82.84-1.23c1.21-1.78,3.7-2.64,6.1-3.48,2.96-1.03,6.03-2.1,6.79-4.95ZM118.51,236.5l1.04,5.67c.77,4.21,1.02,7.5-3.32,8.29-3.38.62-5.24-.98-6.02-5.2l-1.28-7,9.58-1.76Z"/>
  <path class="cls-1" d="M132.84,270.63c-3.23-8.35-11.78-11.75-20.77-8.26-4.06,1.57-7.32,4.27-9.17,7.58-2.11,3.78-2.3,8.16-.55,12.68,1.68,4.34,4.63,7.39,8.54,8.84,1.63.6,3.41.9,5.26.9,2.3,0,4.71-.46,7.09-1.39,9.23-3.58,13-11.56,9.6-20.35ZM106.77,280.86c-2.6-6.73,2.19-11.34,7.55-13.42,1.83-.71,3.61-1.06,5.27-1.06,1.21,0,2.35.19,3.41.57,2.51.9,4.41,2.84,5.48,5.6,1.08,2.8.93,5.54-.44,7.94-1.28,2.22-3.57,4.07-6.47,5.19-5.44,2.1-12.18,1.94-14.8-4.81Z"/>
  <polygon class="cls-1" points="158.11 314.95 147.43 322.91 138.66 311.15 149.34 303.19 146.18 298.95 120.47 318.11 123.63 322.35 134.77 314.05 143.54 325.81 132.4 334.11 135.61 338.42 161.32 319.26 158.11 314.95"/>
  <path class="cls-1" d="M175.47,354.51c6.66-7.33,6.45-16.16-.52-22.49-6.62-6.02-15.78-5.24-22.27,1.9-2.93,3.23-4.64,7.09-4.81,10.88-.2,4.32,1.59,8.33,5.18,11.59,3.02,2.74,6.47,4.17,10.08,4.17.5,0,1.01-.03,1.52-.08,3.88-.43,7.73-2.55,10.83-5.96ZM164.19,355.19c-2.9.62-5.58-.18-7.98-2.36-5.34-4.85-3.12-11.12.75-15.38,2.28-2.51,4.89-4.01,7.54-4.33.35-.04.71-.06,1.06-.06,2.27,0,4.45.89,6.35,2.62,4.98,4.53,3.43,10.71-.31,14.83-2.25,2.47-4.88,4.13-7.4,4.67Z"/>
  <path class="cls-1" d="M209.83,356.93l-20.02,15.81,4.06-25.21-5.37-3.16-16.26,27.64,4.56,2.68.31-.54c.08-.14,6.83-11.85,10.63-18.4l-3.97,23.04,3.44,2.02,18.18-14.36c-3.85,6.32-10.76,17.82-10.85,17.96l-.32.53,4.6,2.71,16.26-27.64-5.26-3.09Z"/>
  <rect class="cls-1" x="200.42" y="374.65" width="32.07" height="5.33" transform="translate(-214.72 434.85) rotate(-67.76)"/>
  <polygon class="cls-1" points="243.71 392.9 235.01 367.45 234.9 367.14 230.02 365.86 221.84 396.86 227.04 398.23 232.8 376.37 241.55 402.06 246.34 403.32 254.52 372.32 249.49 370.99 243.71 392.9"/>
  <path class="cls-1" d="M276.35,392.82c-.16,2.02-.41,4.32-1.48,6.01-1.17,1.84-3.16,2.62-6.09,2.39-6.28-.48-6.49-4.49-6.12-9.28l1.43-18.56-5.4-.42-1.38,17.9c-.24,3.15-.54,7.07,1.09,9.98,1.82,3.23,5.35,5.07,10.47,5.46.47.04.93.05,1.39.05,4.73,0,8.27-1.98,10.04-5.65.96-1.95,1.23-4.59,1.41-6.91l1.46-18.95-5.4-.42-1.41,18.38Z"/>
  <path class="cls-1" d="M312.07,372.15l-6.35,24.71-12.03-22.51-6.19.74,3.81,31.84,5.26-.63-.08-.61c-.02-.16-1.75-13.56-2.69-21.08l10.79,20.73,3.96-.47,5.76-22.44c.76,7.36,2.23,20.7,2.25,20.86l.07.61,5.3-.63-3.81-31.84-6.06.72Z"/>
  <path class="cls-1" d="M356.97,373.59c1.67-2.02,1.97-4.71.8-7.61-1.27-3.14-3.41-4.83-6.35-5.03-2.45-.16-4.99.71-7.16,1.59l-10.81,4.38,12.04,29.73,10.04-4.07c3.64-1.47,12.15-4.92,8.59-13.71-1.36-3.36-3.91-5.22-7.15-5.28ZM340.21,369.32l5.75-2.33c1.27-.52,2.91-1.09,4.27-.94,1.32.14,2.23.93,2.86,2.48.57,1.41.39,2.69-.52,3.83-.74.92-3.53,2.05-4.45,2.42l-4.9,1.98-3.02-7.45ZM353.26,388.26l-4.62,1.87-3.61-8.91,5.71-2.31c3.16-1.28,6.66-2.3,8.32,1.81,1.66,4.11-2.13,6.05-5.81,7.54Z"/>
  <polygon class="cls-1" points="376.92 376.86 372.22 369.13 386 360.76 383.45 356.58 369.68 364.95 365.44 357.97 380.03 349.1 377.4 344.77 358.25 356.41 374.9 383.81 394.5 371.9 391.96 367.72 376.92 376.86"/>
  <polygon class="cls-1" points="395.32 329.57 410.23 346.63 383.95 339.5 380.15 342.82 401.25 366.96 405.3 363.43 390.42 346.4 416.6 353.55 420.33 350.29 399.23 326.14 395.32 329.57"/>
  <polygon class="cls-1" points="426.84 335.6 419.82 329.9 429.99 317.39 426.2 314.3 416.03 326.81 409.69 321.65 420.47 308.4 416.53 305.2 402.39 322.59 427.27 342.82 441.74 325.03 437.95 321.94 426.84 335.6"/>
  <polygon class="cls-1" points="444.09 293.97 439.9 291.52 432.71 303.82 425.66 299.7 433.53 286.23 429.19 283.7 418.61 301.8 446.3 317.98 449.01 313.34 436.9 306.27 444.09 293.97"/>
  <rect class="cls-1" x="443.78" y="267.5" width="5.33" height="32.07" transform="translate(8.05 579.37) rotate(-66.43)"/>
  <path class="cls-1" d="M463.57,249.97l-.58-.29-2.07,4.84.45.28c3.77,2.36,5.33,6.13,4.17,10.08-1.91,6.49-8.24,7.14-13.53,5.59-2.65-.78-11.13-3.97-8.7-12.21,1.18-4,4.27-6.02,8.69-5.7l.54.04,1.02-5.26-.63-.09c-6.89-1.01-12.25,2.62-14.34,9.72-1.34,4.56-.82,8.75,1.5,12.11,2.12,3.06,5.68,5.4,10.31,6.76,2.22.65,4.32.97,6.27.97,6.58,0,11.42-3.66,13.41-10.44,2.07-7.06-.42-13.33-6.5-16.38Z"/>
  <rect class="cls-1" x="456.29" y="224.73" width="5.33" height="32.07" transform="translate(149.09 656.2) rotate(-80.96)"/>
  <path class="cls-1" d="M460.86,201.83c-9.57,0-15.86,5.88-16.09,15.11-.11,4.57,1.45,8.48,4.51,11.31,2.87,2.66,6.95,4.18,11.5,4.29.17,0,.34,0,.51,0,7.99,0,15.99-4.58,16.24-14.98.12-4.65-1.44-8.6-4.5-11.44-2.86-2.66-6.98-4.18-11.59-4.3-.2,0-.39,0-.58,0ZM472.77,217.5c-.08,3.16-1.31,5.61-3.68,7.29-2.11,1.5-5.1,2.28-8.44,2.2-3.39-.08-6.23-1.08-8.2-2.87-1.97-1.79-2.98-4.31-2.91-7.28.07-3,1.27-5.47,3.45-7.16,1.95-1.5,4.62-2.31,7.57-2.31.13,0,.26,0,.4,0,5.83.14,11.99,2.88,11.81,10.12Z"/>
  <path class="cls-1" d="M258.68,319.44c-.4,2.05-1.78,3.04-4.23,3.04h-.2v2.1h3.89v12.03h2.74v-17.34h-2.16l-.03.17Z"/>
  <path class="cls-1" d="M276.53,320.32c-1.13-.96-2.44-1.42-4-1.42-3.54,0-6.01,2.45-6.01,5.96s2.27,5.84,5.64,5.84c1.74,0,3.22-.67,4.23-1.9-.11,1.75-.7,5.6-3.96,5.6-1.68,0-2.74-.99-2.91-2.71l-.02-.2-2.71.2.02.21c.28,2.98,2.3,4.84,5.27,4.84,2.59,0,6.94-1.19,6.94-9.15,0-3.45-.82-5.83-2.5-7.28ZM272.45,328.26c-1.87,0-3.23-1.4-3.23-3.32,0-2.2,1.26-3.62,3.23-3.62s3.4,1.51,3.4,3.59c0,1.97-1.4,3.35-3.4,3.35Z"/>
  <path class="cls-1" d="M292.62,319.25h-2.12l-7.99,10.84v2.62h7.42v3.89h2.69v-3.89h2.55v-2.39h-2.55v-11.07ZM289.93,330.32h-4.6l4.73-6.76c-.04,1.89-.11,5.83-.13,6.76Z"/>
  <path class="cls-1" d="M305.37,324.95c-1.76,0-3.3.7-4.26,1.92.28-3.75,1.63-5.65,4.02-5.65,1.63,0,2.79,1.09,2.88,2.7v.2s2.66-.17,2.66-.17l-.02-.21c-.35-3.04-2.4-4.86-5.47-4.86-1.58,0-6.72.65-6.72,9.05,0,5.69,2.32,8.83,6.52,8.83,3.58,0,5.98-2.38,5.98-5.91s-2.35-5.89-5.59-5.89ZM305.03,334.36c-2,0-3.4-1.47-3.4-3.57,0-1.95,1.44-3.37,3.42-3.37s3.23,1.3,3.23,3.47c0,2.04-1.34,3.47-3.25,3.47Z"/>
  <path class="cls-1" d="M102.18,186.47c0,2.71,2.19,4.9,4.9,4.9s4.9-2.19,4.9-4.9-2.19-4.9-4.9-4.9-4.9,2.19-4.9,4.9Z"/>
  <path class="cls-1" d="M463.12,186.47c0-2.71-2.19-4.9-4.9-4.9s-4.9,2.19-4.9,4.9,2.19,4.9,4.9,4.9,4.9-2.19,4.9-4.9Z"/>
</svg>