<?xml version="1.0" encoding="UTF-8"?>
<svg id="_레이어_1" data-name="레이어 1" xmlns="http://www.w3.org/2000/svg" viewBox="0 0 1133.86 850.39">
  <defs>
    <style>
      .cls-1 {
        fill: #555656;
        stroke-width: 0px;
      }
    </style>
  </defs>
  <polygon class="cls-1" points="539.55 410.45 539.55 396.04 500.16 396.04 500.16 401.33 531 401.33 531 410.45 539.55 410.45"/>
  <polygon class="cls-1" points="588.06 410.45 588.06 371.5 580.14 371.5 580.14 384.95 576.44 384.95 576.44 371.5 568.51 371.5 568.51 403.01 554.3 403.01 554.3 376.49 565.1 376.49 565.1 371.5 546.27 371.5 546.27 408.05 568.51 408.05 568.51 410.45 576.44 410.45 576.44 390.23 580.14 390.23 580.14 410.45 588.06 410.45"/>
  <path class="cls-1" d="M511.45,393.21c7.93,0,14.17-4.56,14.17-11.29s-6.24-11.29-14.17-11.29-14.17,4.56-14.17,11.29,6.2,11.29,14.17,11.29ZM511.45,375.34c3.17,0,5.72,2.59,5.72,6.53s-2.4,6.63-5.72,6.63-5.71-2.69-5.71-6.63,2.49-6.53,5.71-6.53Z"/>
  <polygon class="cls-1" points="634.17 410.45 634.17 397 594.79 397 594.79 402.29 625.72 402.29 625.72 410.45 634.17 410.45"/>
  <path class="cls-1" d="M607.18,394.55c7.88,0,13.21-4.47,13.21-10.33,0-2.49-1.01-4.75-2.74-6.48h4.8v-4.8h-11.05v-3.36h-8.45v3.36h-11.05v4.8h4.8c-1.73,1.73-2.74,3.99-2.74,6.48,0,5.86,5.33,10.33,13.21,10.33ZM607.18,377.6c2.88,0,5.19,2.4,5.19,6.1s-2.16,6.15-5.19,6.15-5.19-2.5-5.19-6.15,2.26-6.1,5.19-6.1Z"/>
  <polygon class="cls-1" points="681.73 371.5 641.86 371.5 641.86 376.78 673.47 376.78 673.47 405.17 667.9 405.17 667.9 383.75 660.21 383.75 660.21 405.17 655.4 405.17 655.4 383.75 647.72 383.75 647.72 405.17 640.42 405.17 640.42 410.45 685.57 410.45 685.57 405.17 681.73 405.17 681.73 371.5"/>
  <polygon class="cls-1" points="634.17 389.03 639.46 389.03 639.46 383.75 634.17 383.75 634.17 371.5 625.72 371.5 625.72 395.08 634.17 395.08 634.17 389.03"/>
  <rect class="cls-1" x="531" y="371.5" width="8.55" height="22.63"/>
  <path class="cls-1" d="M450.69,402.19c0,5.43,7.78,9.22,20.17,9.22s20.17-3.8,20.17-9.22c0-2.55-1.73-4.56-4.9-5.96h7.3v-5.04h-18.25v-1.97c9.22-.67,14.41-3.5,14.41-7.15,0-1.78-1.15-3.22-3.36-4.32h6.72v-4.8h-17.77v-3.36h-8.65v3.36h-17.77v4.8h6.72c-2.21,1.1-3.36,2.54-3.36,4.32,0,3.65,5.19,6.49,14.41,7.15v1.97h-18.25v5.04h7.3c-3.17,1.39-4.9,3.41-4.9,5.96ZM462.55,383.7c-1.25-.57-1.78-1.39-1.78-2.31s.53-1.73,1.78-2.3c1.83-.86,5-1.35,8.31-1.35s6.48.48,8.31,1.35c1.25.57,1.78,1.39,1.78,2.3s-.53,1.73-1.78,2.31c-1.83.91-4.95,1.35-8.31,1.35s-6.49-.43-8.31-1.35ZM462.51,397.77c2.02-.87,5.09-1.34,8.36-1.34s6.34.48,8.36,1.34c2.11.92,3.17,2.21,3.17,3.75s-1.01,2.84-3.17,3.75c-2.02.87-5.09,1.35-8.36,1.35s-6.34-.48-8.36-1.35c-2.16-.91-3.17-2.21-3.17-3.75s1.06-2.83,3.17-3.75Z"/>
  <path class="cls-1" d="M576.91,438.49l-9.98,8.37-9.91-8.33-.05-.04h-74.83l-31.67,34.63-.05.05v105.16h84.94l10.5,8.78.05.04h42.06l10.55-8.82h84.25v-105.16l-31.73-34.68h-74.13ZM568.49,449.62l9.56-8h69.94v99.87h-71.09l-8.42,7.02v-98.89ZM485.16,441.62h70.65l9.54,8v98.89l-8.35-6.98-.05-.04h-71.8v-99.87ZM484.27,544.63h71.54l11,9.18.11.09,11.13-9.28h70.84l4.96,5.28h-69.04l-10.55,8.82h-14.67l-10.5-8.78-.05-.04h-69.73l4.96-5.28ZM477.26,448.43l4.77-5.22v99.22l-4.77,5.08v-99.08ZM469.36,457.08l4.77-5.22v98.99l-4.77,5.08v-98.86ZM461.45,465.73l4.77-5.22v98.77l-4.77,5.09v-98.64ZM453.55,474.38l4.77-5.22v98.55l-4.77,5.09v-98.41ZM674.85,469.17l4.77,5.21v98.41l-4.77-5.09v-98.54ZM677.57,575.19h-80.2l-10.55,8.82h-39.78l-10.5-8.78-.05-.04h-80.89l4.96-5.29h78.97l10.5,8.78.05.04h33.69l10.55-8.82h78.28l4.96,5.29ZM666.94,460.54l4.77,5.21v98.62l-4.77-5.09v-98.75ZM669.66,566.76h-76.48l-10.55,8.82h-31.41l-10.5-8.78-.05-.04h-77.17l4.97-5.29h75.25l10.5,8.78.05.04h25.32l10.55-8.82h74.56l4.97,5.29ZM659.04,451.9l4.77,5.21v98.83l-4.77-5.08v-98.96ZM661.76,558.33h-72.76l-10.54,8.82h-23.04l-10.5-8.78-.05-.04h-73.45l4.96-5.29h71.53l10.5,8.77.05.04h16.95l10.55-8.81h70.84l4.96,5.29ZM651.13,443.25l4.78,5.22v99.04l-4.78-5.09v-99.17Z"/>
  <polygon class="cls-1" points="523.73 327.1 496.72 327.1 496.72 278.49 604.73 278.49 604.73 289.29 610.13 289.29 610.13 273.09 491.32 273.09 491.32 332.5 523.73 332.5 523.73 327.1"/>
  <rect class="cls-1" x="523.72" y="289.29" width="81.01" height="37.8"/>
  <polygon class="cls-1" points="610.13 332.5 523.73 332.5 523.73 348.7 642.53 348.7 642.53 289.3 610.13 289.3 610.13 332.5"/>
  <path class="cls-1" d="M775.37,380.57c-1.3-4.01-3.72-7.27-6.12-10.19-12.35-16.81-20.81-29.53-25.17-37.83-6.08-11.58-7.86-19.86-11.76-37.99l-.09-.46c-1.06-4.93-2.27-10.52-3.75-17.09-2.69-11.89-9.23-20.46-18.89-24.77-23.32-12.29-45.55-27.22-57.5-36.27-10.57-8.01-28.28-27.44-28.45-27.63l-.3-.22c-.4-.19-4.08-1.84-11.25-1.39-7.17.45-14.51,5.96-17.85,13.4-3.32,7.42.42,15.67,4.46,18.09.31.19.72.43,1.24.77-4.59,2.26-18.23,8.28-33.01,8.28s-28.42-6.01-33.01-8.27c.53-.34.93-.58,1.24-.77,4.04-2.42,7.78-10.68,4.46-18.09-3.34-7.43-10.67-12.94-17.84-13.4-7.12-.46-10.85,1.2-11.31,1.43l-.19.14-.05.05c-.17.19-17.99,19.7-28.45,27.63-11.93,9.04-34.15,23.96-57.44,36.24-9.7,4.33-16.25,12.9-18.95,24.79-1.53,6.76-2.79,12.65-3.81,17.37l-.04.17c-3.9,18.14-5.68,26.42-11.76,38-6.2,11.81-19.61,30.47-25.06,37.91-2.88,2.94-5.03,6.43-6.23,10.11-5.22,16.06,6.95,27.31,11.98,29.58,5.6,2.54,19.86,4.41,25.81-6.55,1.28-2.37,2.41-5.74,2.51-6.19,2.3-10.64,9.92-20.01,11.92-22.32,10.89,8.1,18.22,27.81,19.63,52.82,1.26,22.35-6.72,37.41-13.75,46.19-1.97-2.12-6.27-7.41-9.34-15.84-1.2-3.96-4.9-7.94-9.22-9.9-3.2-1.45-8.38-2.55-14.85.42-4.8,2.21-8.32,6.08-10.17,11.18-2.12,5.84-1.78,12.72.91,18.4.46.96,1.01,1.91,1.64,2.84l-.09.05.54.81c.11.17,11.41,17.36,17.13,34.25,2.06,6.08,3.92,13.03,5.9,20.45,3.81,14.23,8.89,32.02,14.43,43.27,14.82,30.12,35.4,49.99,66.74,64.43,38.4,17.69,76.76,17.69,89.37,17.69,30.33,0,58.63-5.95,84.12-17.69,31.1-14.33,52.51-35.1,67.4-65.35,5.38-10.93,13.8-42.46,13.8-42.46,1.96-7.33,3.81-14.25,5.87-20.33,5.94-17.54,16.87-34.04,16.97-34.2,1.02-1.47,1.73-2.66,2.25-3.75,2.69-5.68,3.03-12.55.91-18.4-1.86-5.1-5.37-8.97-10.17-11.18-6.47-2.98-11.65-1.88-14.85-.42-4.15,1.88-7.49,5.57-8.71,9.61-3.02,8.3-7.71,13.88-9.85,16.14-4.87-6.1-15.43-22.3-14.51-47.02.93-24.9,7.97-42.87,20.38-52,2.53,2.88,8.34,10.38,12.13,22.12.35,2.08,1.12,4.23,2.29,6.39,5.94,10.96,20.21,9.09,25.81,6.55,5.03-2.28,17.2-13.52,11.98-29.58ZM597.82,201.73c2.76-6.16,8.73-10.72,14.51-11.09.76-.05,1.47-.07,2.14-.07,3.77,0,6.08.69,6.86.97,2.1,2.29,18.29,19.92,28.38,27.56,9.83,7.44,27.05,19.2,46.26,30.15-9.55-.18-17.54,3.43-21.32,7.25-9.21,9.32-9.7,18.51-8.92,25.04-8.24-12.01-20.4-28.28-32.97-40-22.53-21-29.69-25.29-32.04-26.7-2.75-1.65-5.31-7.73-2.9-13.11ZM689.35,288.26s-2.85-4.93-.64-9.46c2.33-4.76,6.97-5.99,10.54-5.1,4.08,1.02,11.95,6.73,10.19,17.84-1.79,11.31-13.88,12.79-20.74,11.89-4.6-.6-11.37-3.55-15.32-9.86-.44-.77-1.2-2.25-1.27-2.38-.45-1-.8-1.98-1.07-2.99-1.11-4.2-2.23-9.71-1.1-15.46,2.35,1.92,10.02,8.53,16.12,17.61l.19.28,3.27-2.09-.17-.29ZM685.19,277.08c-.62,1.26-1.02,2.58-1.21,3.95-5.15-6.12-10.15-10.3-12.84-12.36,1.32-3.37,3.38-6.45,6.3-9.4.41-.41.86-.81,1.35-1.18,4.8,5.02,10.6,9.14,14.88,11.85-3.69.95-6.69,3.46-8.49,7.14ZM484.15,219.1c10.09-7.65,26.28-25.27,28.38-27.56,1.1-.4,4.04-1.22,9-.9,5.78.37,11.74,4.93,14.51,11.08,2.41,5.39-.15,11.46-2.9,13.11-2.35,1.41-9.52,5.7-32.05,26.7-12.67,11.81-24.81,28.25-33.02,40.41.86-6.66.44-16.03-8.87-25.45-3.31-3.35-10.69-7.26-20.59-7.26-.24,0-.48,0-.72,0,19.23-10.97,36.44-22.72,46.26-30.15ZM445.14,278.8c2.22,4.54-.52,9.26-.64,9.46l-.17.29,3.27,2.09.19-.28c6.1-9.08,13.77-15.69,16.12-17.61,1.13,5.76.01,11.27-1.1,15.46-2.44,9.19-10.86,14.33-17.66,15.22-6.86.91-18.94-.58-20.74-11.89-1.75-11.07,6.05-16.78,10.15-17.83h.04c.71-.19,1.46-.28,2.22-.28,1.71,0,5.95.52,8.32,5.37ZM440.19,269.93c4.28-2.71,10.08-6.84,14.87-11.85.5.38.95.78,1.35,1.18,2.92,2.96,4.99,6.04,6.31,9.4-2.25,1.73-7.52,6.04-12.84,12.36-.19-1.37-.59-2.7-1.21-3.96-1.8-3.68-4.79-6.19-8.48-7.14ZM394.68,396.49l-.11.6c-.32,1.52-.91,3.08-1.76,4.64-4.63,8.54-16.17,6.9-20.73,4.84-4.17-1.89-14.26-11.27-9.86-24.79.79-2.42,2.03-4.7,3.7-6.78.61-.75,1.41-1.67,1.65-1.87l.07-.06c2.51-2.52,5.63-4.52,9.02-5.79,3.05-1.15,6.29-1.73,9.63-1.73,1.11,0,2.24.06,3.37.19-1.32,3.69-5.57,13.44-11.67,20.49l-.24.27,3.14,2.45.21-.27s3.36-4.25,7.57-2.8c2.51.86,4.58,2.83,5.54,5.27.63,1.6.78,3.39.46,5.33ZM397.53,388.89c-1.49-3.12-4.27-5.6-7.57-6.73-1.05-.35-2.11-.53-3.16-.53-.11,0-.23,0-.34,0,3.89-6.03,6.12-11.97,7.15-15.21,3.59.86,7.13,2.31,10.5,4.32,1.12.67,2.21,1.35,3.33,2.08-2.3,2.66-6.36,8.02-9.9,16.06ZM407.03,467.21c2.89,5.27,5.67,8.51,6.95,9.87-3.84,4.1-8.04,7.18-11.85,8.69-.67.27-1.38.5-2.15.71-1.1-4.47-3.4-8.7-5.29-11.66,1.61.13,3.15-.05,4.79-.54,3.31-.99,6.2-3.72,7.56-7.06ZM377.44,476.67c-2.25-4.75-2.54-10.5-.77-15.37,1.48-4.09,4.29-7.19,8.12-8.95,2.18-1.01,4.35-1.52,6.45-1.52,1.8,0,3.53.37,5.14,1.1,3.32,1.5,6.24,4.59,7.1,7.5,1.76,5.93-1.96,10.05-5.15,11.08-3.89,1.25-6.69.08-9.68-4.03l-.2-.28-3.25,2.36.24.28c.35.41,8.43,9.89,10.64,18.31-7.8.58-15.42-3.69-18.65-10.49ZM730.87,459.19c.9-3.04,3.43-5.82,6.6-7.26,2.46-1.11,6.47-1.95,11.59.42,3.83,1.76,6.64,4.86,8.12,8.95,1.77,4.87,1.48,10.62-.77,15.37-3.22,6.8-10.86,11.07-18.64,10.49,2.24-8.47,10.55-18.21,10.64-18.31l.25-.28-3.25-2.36-.2.28c-3.29,4.52-5.76,4.75-9.72,3.56-3.49-1.05-6.29-5.21-4.61-10.86ZM727.3,467c1.27,3.33,3.86,5.85,7.06,6.81,1.94.58,3.52.87,4.89.88-1.92,2.98-4.25,7.27-5.37,11.79-.79-.21-1.5-.45-2.16-.71-3.8-1.5-8-4.58-11.84-8.68,1.67-1.71,4.62-5.09,7.42-10.09ZM698.85,426.94c-1.03,34.11,17.76,57.07,31.43,62.48,6.22,2.46,13.02,2.27,18.85-.47-3.84,6.77-8.86,16.48-12.11,26.08-2.1,6.2-3.97,13.17-5.95,20.55l-.56,2.08c-3.46,12.95-7.76,29.07-12.98,39.68-14.47,29.41-35.29,49.59-65.52,63.52-24.97,11.5-52.71,17.33-82.47,17.33-12.39,0-50.11,0-87.72-17.33-30.46-14.04-50.47-33.34-64.86-62.6-5.39-10.96-10.41-28.52-14.17-42.6l-.04-.14c-1.97-7.36-3.83-14.31-5.93-20.5-3.25-9.6-8.27-19.31-12.11-26.08,5.84,2.75,12.64,2.93,18.85.47,12.69-5.02,32.25-26.21,30.68-61.67-1.34-30.54-10.29-49.73-28.14-60.38-10.18-6.08-21.13-7.42-30.82-3.79-.37.14-.74.29-1.12.45,6.35-8.96,14.54-21.01,19.08-29.67,6.33-12.05,8.15-20.5,12.13-39l.03-.13c1.08-5,2.3-10.67,3.81-17.37,2.19-9.68,7.25-16.94,14.65-21.02l.02.03,2.1-1.1c1.22-.55,2.5-1.01,3.81-1.38,7.06-2.01,15.56-1.37,21.81,1.61-8.42,8.48-20.21,14.49-20.72,14.75-6.15,3.11-12.1,10.37-10.36,21.4,2.26,14.28,16.86,16.26,25.13,15.18,5.45-.72,13.49-4.23,18.2-11.78h0c.19-.32,19.61-32.21,39.91-51.13,11.43-10.65,20.34-18.36,26.49-22.91,2.54,1.4,18.25,9.67,36.67,9.67s34.13-8.26,36.67-9.67c6.16,4.55,15.07,12.26,26.49,22.91,15.71,14.65,30.81,36.8,38.4,48.7,5.21,8.39,11.84,13.17,19.71,14.21,8.27,1.08,22.87-.9,25.13-15.18,1.75-11.03-4.24-18.21-10.44-21.24-.12-.06-12.1-6.3-20.63-14.9,6.25-2.99,14.75-3.63,21.81-1.62,1.34.38,3.22,1.11,3.8,1.38.57.26.86.41,1.19.58l.09.05c7.86,3.99,13.21,11.42,15.49,21.47,1.58,6.96,2.89,13.06,3.84,17.52,3.98,18.49,5.8,26.93,12.12,38.98,4.54,8.65,12.74,20.71,19.08,29.67-.37-.16-.74-.31-1.12-.45-9.69-3.64-20.63-2.29-30.83,3.79-18.82,11.23-28.01,30.16-28.89,59.57ZM736.33,388.89c-3.54-8.04-7.6-13.4-9.9-16.06,1.08-.7,2.2-1.4,3.33-2.08,3.37-2.01,6.9-3.46,10.5-4.32,1.04,3.23,3.26,9.17,7.16,15.21-1.18-.04-2.36.13-3.51.52-3.3,1.12-6.08,3.61-7.58,6.73ZM761.77,406.57c-4.55,2.06-16.1,3.7-20.73-4.84-.78-1.46-1.46-3.3-1.81-4.91-.34-2.08-.2-4.14.4-5.67.96-2.45,3.03-4.41,5.54-5.27.65-.22,1.32-.34,1.97-.34,3.1,0,5.51,3.01,5.61,3.14l.21.27,3.13-2.45-.24-.27c-6.12-7.07-10.35-16.81-11.67-20.49,4.56-.51,8.93,0,13,1.54,3.4,1.27,6.51,3.27,9.01,5.77,0,0,.9.96,1.74,1.95,1.67,2.09,2.92,4.37,3.7,6.78,4.4,13.51-5.69,22.9-9.86,24.79Z"/>
  <path class="cls-1" d="M607.8,486.5c4.32-.42,10.12-1.02,15.73-1.63.19,1.1.34,2.12.42,3.07l4.47-1.33c-.53-4.7-2.5-11.64-5.08-17.05l-4.09,1.29c1.32,2.92,2.5,6.44,3.37,9.74-2.73.23-5.49.49-8.07.68,2.12-7.84,4.28-18.34,5.53-27.28l-5.23-.68c-.83,8.87-2.76,20.16-4.85,28.34l-2.8.19.61,4.66Z"/>
  <path class="cls-1" d="M595.03,462.4c-.42,4.21-1.21,9.44-1.93,12.85l4.51.76.3-1.63h5.42c-.46,5.53-1.06,7.96-1.78,8.68-.46.38-.8.46-1.44.46-.83,0-2.62-.04-4.4-.19.8,1.25,1.33,3.07,1.4,4.47,1.97.04,3.9.08,5.04-.08,1.37-.19,2.28-.57,3.18-1.56,1.29-1.44,1.97-5.23,2.66-14.02.08-.61.11-1.82.11-1.82h-9.55c.19-1.21.38-2.46.53-3.71h8.91v-12.73h-14.02v4.21h9.66v4.32h-8.6Z"/>
  <path class="cls-1" d="M602.76,506.18h15.46v-3.41c1.78,2.05,3.9,3.9,6.14,5.31.8-1.06,2.46-2.69,3.52-3.45-3.83-1.93-7.43-5.46-9.25-8.94h-13.41v4.17h10.72c.61.87,1.29,1.78,2.01,2.61h-15.2v3.71Z"/>
  <path class="cls-1" d="M595.71,521.11c1.1-.68,2.24-1.48,3.33-2.39v5.99h-5.42v4.06h33.53v-4.06h-5.04v-6.14c.95.72,1.97,1.36,2.99,1.93.76-1.1,2.39-2.77,3.45-3.56-4.06-1.71-7.77-4.93-9.55-8.3h-14.55v2.73l-3.71-1.17c-1.74,3.07-4.96,5.87-8.37,7.54.99.8,2.61,2.54,3.33,3.37ZM605.6,524.71h-2.58v-4.55h2.58v4.55ZM611.78,524.71h-2.65v-4.55h2.65v4.55ZM617.92,524.71h-2.65v-4.55h2.65v4.55ZM604.47,512.62v.23h11.94c.99,1.33,2.12,2.62,3.41,3.83h-18.57c1.21-1.25,2.31-2.61,3.22-4.05Z"/>
  <path class="cls-1" d="M596.47,508.45c3.26-2.31,6.67-6.1,8.68-10l-4.55-1.33c-1.63,3.15-4.55,6.1-7.65,8,1.02.76,2.76,2.46,3.52,3.33Z"/>
  <path class="cls-1" d="M526.09,455.46c.04-.8.08-1.55.11-2.16h-5.15c-.27,5,.27,22.2-14.85,30.58,1.52,1.06,2.99,2.42,3.79,3.6,8-4.89,11.97-12.2,14.02-19.02,2.12,6.97,6.36,14.78,14.93,19.02.72-1.21,2.09-2.77,3.49-3.83-14.13-6.63-16.03-22.96-16.33-28.19Z"/>
  <path class="cls-1" d="M525.45,509.67h10.31v14.82c0,.61-.23.83-.91.83-.49.04-1.9.04-3.37,0v-13.45h-14.59v16.41h4.09v-1.93h9.4c.45,1.18.87,2.58.99,3.52,3.26,0,5.46-.11,6.93-.87,1.52-.72,2.01-2.05,2.01-4.47v-28.61h-14.85v13.75ZM527.23,523.04h-6.25v-2.35h6.25v2.35ZM527.23,517.47h-6.25v-2.27h6.25v2.27ZM529.73,499.17h6.03v2.01h-6.03v-2.01ZM529.73,504.21h6.03v2.23h-6.03v-2.23Z"/>
  <path class="cls-1" d="M522.83,495.91h-14.51v33.95h4.47v-20.27h10.04v-13.68ZM518.62,506.37h-5.84v-2.16h5.84v2.16ZM518.62,501.18h-5.84v-2.01h5.84v2.01Z"/>
  <path class="cls-1" d="M825.7,424.7c0-142.69-116.08-258.77-258.77-258.77s-258.78,116.09-258.78,258.77,116.09,258.78,258.78,258.78,258.77-116.09,258.77-258.78ZM566.93,679.43c-140.45,0-254.72-114.27-254.72-254.73s114.27-254.71,254.72-254.71,254.7,114.26,254.7,254.71-114.26,254.73-254.7,254.73Z"/>
  <path class="cls-1" d="M566.93,80.28c-190.19,0-344.92,154.73-344.92,344.92s154.73,344.92,344.92,344.92,344.91-154.73,344.91-344.92S757.12,80.28,566.93,80.28ZM566.93,766.02c-187.94,0-340.85-152.9-340.85-340.83S378.99,84.35,566.93,84.35s340.84,152.9,340.84,340.84-152.9,340.83-340.84,340.83Z"/>
  <polygon class="cls-1" points="306.37 350.04 283.95 342.39 292.04 318.68 314.46 326.33 317.41 317.68 265.68 300.02 262.72 308.68 284.23 316.02 276.14 339.72 254.63 332.38 251.73 340.9 303.46 358.55 306.37 350.04"/>
  <path class="cls-1" d="M295.99,298.17c4.83,2.8,10.32,4.49,15.77,4.49,8.12,0,16.11-3.75,21.56-13.12,3.98-6.85,4.9-14.04,2.66-20.79-2.1-6.32-7.01-11.98-13.8-15.93-7.54-4.38-15.13-5.66-21.96-3.71-6.29,1.8-11.59,6.16-15.34,12.62-7.67,13.2-3.09,28.18,11.13,36.44ZM292.06,265.48c2.57-4.43,6.39-7.15,11.05-7.87.83-.13,1.68-.19,2.55-.19,3.64,0,7.55,1.13,11.26,3.28,8.6,5,15.57,14.14,9.36,24.84-2.71,4.67-6.57,7.32-11.48,7.89-4.39.51-9.52-.78-14.43-3.64-5.01-2.91-8.43-6.72-9.92-11.03-1.48-4.31-.92-8.9,1.62-13.27Z"/>
  <polygon class="cls-1" points="355.93 254.93 327 229.41 372.86 235.73 378.45 229.4 337.45 193.24 331.6 199.87 360.6 225.45 314.56 219.19 308.88 225.63 349.88 261.79 355.93 254.93"/>
  <path class="cls-1" d="M383.11,215.08c1.65.38,3.3.57,4.95.57,5.13,0,10.2-1.83,14.87-5.42,5.29-4.06,8.65-9.37,9.35-14.61l3.41,3.98,6.09-4.67-17.81-23.22-19.67,15.09,4.93,6.43,13.14-10.08c4.16,7.46,2.81,15.05-3.65,20.01-9.61,7.37-19.39,1.66-24.85-5.46-3.56-4.65-5.52-9.34-5.67-13.58-.16-4.81,1.98-8.95,6.38-12.33,6.22-4.77,12.88-4.66,18.29.29l.68.63,6.96-6.06-.83-.78c-8.7-8.24-19.8-8.63-29.69-1.04-12.94,9.93-14.38,24.7-3.75,38.55,4.77,6.22,10.61,10.26,16.88,11.71Z"/>
  <rect class="cls-1" x="418.01" y="136.52" width="9.07" height="54.67" transform="translate(-26.27 226.76) rotate(-29.17)"/>
  <polygon class="cls-1" points="458.28 176.29 451.66 159.44 455.92 149.99 483.27 166.47 494.47 162.06 459.65 141.74 472.87 111.8 461.46 116.29 447.52 148.91 438.28 125.4 429.9 128.7 449.91 179.58 458.28 176.29"/>
  <path class="cls-1" d="M518.61,150.07c3.4,4.03,8.48,6.06,15.13,6.06,1.32,0,2.7-.08,4.14-.24,9.21-1.02,15.38-5.64,17.36-13,.99-3.56.6-8.07.17-12.02l-3.57-32.2-9.16,1.01,3.46,31.24c.85,7.68.78,15.29-10.02,16.48-10.66,1.19-12.31-5.46-13.21-13.61l-3.49-31.53-9.17,1.02,3.38,30.42c.59,5.35,1.33,12.01,4.99,16.36Z"/>
  <polygon class="cls-1" points="579.35 115.07 601.79 155.58 610.21 156.25 614.58 101.75 605.76 101.05 602.66 139.59 580.08 98.99 571.52 98.3 567.14 152.8 576.26 153.53 579.35 115.07"/>
  <rect class="cls-1" x="604.37" y="128.91" width="54.67" height="9.07" transform="translate(363.75 720.87) rotate(-77.41)"/>
  <polygon class="cls-1" points="662.9 171.28 700.92 126.95 691.76 123.61 664.18 156.94 664.07 113.51 654.77 110.12 655.46 168.57 662.9 171.28"/>
  <polygon class="cls-1" points="719.2 199.85 723.34 192.63 697.29 177.69 704.97 164.3 728.83 177.97 732.97 170.74 709.11 157.07 716.05 144.97 741.32 159.45 745.61 151.97 712.46 132.97 685.28 180.41 719.2 199.85"/>
  <path class="cls-1" d="M732.84,210.57l14.11-16.65,7.62,6.46c1.16.99,4.25,3.6,5.12,5.39,1.59,3.39-.46,6.44-2.62,9.67-.35.52-.69,1.03-1.01,1.54-2.03,3.2-3.1,5.27-4.01,9.15l-.14.62,9,7.63-.22-2.51c-.32-3.66,2.02-7.49,4.29-11.2,2.8-4.57,5.69-9.29,3.6-13.87,4.82,1.22,9.91-.54,13.64-4.94,2.58-3.05,3.93-6.1,4.12-9.33.46-6.87-3.7-11.4-8.26-15.27l-16.76-14.2-35.34,41.71,6.86,5.82ZM762.84,175.16l7.51,6.36c5.38,4.56,9.44,8.8,4.58,14.54-3.8,4.49-7.99,4.38-13.57-.36l-9.27-7.86,10.75-12.69Z"/>
  <path class="cls-1" d="M794,251.07c-1.9,1.56-4.05,2-6.4,1.28-2.07-.63-4.16-2.13-5.88-4.21-5.2-6.3-5.06-11.57.44-17.09l.76-.76-6.85-6.36-.7.69c-8.43,8.26-8.53,18.31-.29,28.31,3.36,4.08,7.49,6.96,11.6,8.1,1.37.38,2.73.57,4.07.57,3.41,0,6.68-1.23,9.61-3.64,9.43-7.78,5.41-17.2,1.84-25.56l-.82-1.93c-2.97-7.04-3.49-8.62-.55-11.05,1.76-1.45,3.69-1.86,5.72-1.23,1.79.55,3.66,1.93,5.26,3.87,4.27,5.18,4.2,9.69-.22,14.2l-.73.75,6.5,6.22.72-.65c2.33-2.12,3.9-4.59,4.96-7.77,1.91-5.68.21-11.64-5.19-18.2-5.33-6.47-14.66-11.47-23.4-4.27-5.74,4.74-6.73,10.49-3.19,18.66l2.7,6.25c2.08,4.76,4.44,10.16.04,13.79Z"/>
  <rect class="cls-1" x="791.12" y="260.56" width="54.67" height="9.07" transform="translate(-14.37 480.84) rotate(-32.47)"/>
  <polygon class="cls-1" points="850.01 282.43 808.49 302.66 812.5 310.89 854.02 290.66 860.87 304.72 868.49 301.01 850.71 264.52 843.1 268.24 850.01 282.43"/>
  <polygon class="cls-1" points="824.21 340.33 826.89 348.92 847.86 342.37 885.28 352.49 882.06 342.17 855.57 335.44 873.52 314.83 870.33 304.61 845.18 333.78 824.21 340.33"/>
  <path class="cls-1" d="M260.54,430.77c.09,5.57.69,11.86,6.68,16.02,2.78,1.91,6.17,2.91,9.84,2.91.11,0,.22,0,.33,0,5.05-.08,9.23-1.74,12.1-4.79,2.95-3.14,4.46-7.73,4.37-13.27l-.35-21.33-54.18.88.15,9.08,20.89-.34.18,10.85ZM285.32,419.52l.12,7.3c.13,8.16-.38,13.52-8.34,13.65-2.03.05-4.88-.46-6.73-2.99-1.48-2.07-1.54-6.18-1.57-7.73l-.16-9.96,16.68-.27Z"/>
  <path class="cls-1" d="M272.78,493.44c2.93,3.96,7.93,5.8,13.56,4.76,3.89-.71,6.84-2.21,9.02-4.56,4.67-4.99,4.32-11.07,3.25-16.91l-3.93-21.42-53.3,9.78,1.61,8.79,21.27-3.9,1.79,9.73c.27,1.48,1,5.43.54,7.34-.91,3.58-4.39,4.64-8.08,5.76-.59.18-1.17.36-1.73.54-3.57,1.18-5.69,2.11-8.82,4.5l-.5.38,2.11,11.53,1.42-2.08c2.04-3,6.25-4.47,10.31-5.88,5.01-1.74,10.18-3.55,11.47-8.36ZM288.23,465.59l1.76,9.58c1.31,7.12,1.72,12.67-5.61,14.01-5.71,1.04-8.86-1.66-10.17-8.79l-2.17-11.83,16.19-2.97Z"/>
  <path class="cls-1" d="M312.44,523.24c-5.46-14.11-19.89-19.85-35.09-13.96-6.87,2.66-12.37,7.21-15.5,12.81-3.56,6.39-3.89,13.79-.93,21.42,2.84,7.33,7.83,12.49,14.44,14.93,2.76,1.02,5.76,1.53,8.89,1.53,3.88,0,7.96-.78,11.98-2.34,15.6-6.04,21.97-19.54,16.22-34.38ZM268.39,540.53c-4.4-11.37,3.7-19.16,12.75-22.67,3.09-1.2,6.1-1.8,8.9-1.8,2.04,0,3.98.32,5.77.96,4.25,1.52,7.45,4.79,9.26,9.47,1.83,4.73,1.57,9.36-.75,13.41-2.16,3.76-6.04,6.87-10.93,8.77-9.19,3.56-20.58,3.28-25-8.13Z"/>
  <polygon class="cls-1" points="355.14 598.13 337.09 611.58 322.27 591.7 340.32 578.25 334.99 571.08 291.55 603.46 296.89 610.62 315.7 596.6 330.52 616.47 311.7 630.5 317.13 637.78 360.57 605.41 355.14 598.13"/>
  <path class="cls-1" d="M384.46,664.96c11.25-12.38,10.9-27.3-.88-38-11.19-10.17-26.67-8.85-37.63,3.21-4.95,5.45-7.84,11.98-8.13,18.39-.33,7.3,2.69,14.07,8.75,19.57,5.1,4.64,10.94,7.04,17.02,7.04.85,0,1.71-.05,2.57-.14,6.56-.72,13.06-4.3,18.3-10.07ZM365.41,666.11c-4.9,1.05-9.43-.3-13.48-3.98-9.02-8.2-5.26-18.79,1.26-25.98,3.86-4.24,8.26-6.77,12.74-7.31.6-.07,1.19-.11,1.78-.11,3.84,0,7.51,1.51,10.73,4.43,8.42,7.65,5.8,18.09-.52,25.05-3.8,4.18-8.24,6.98-12.51,7.89Z"/>
  <path class="cls-1" d="M442.52,669.04l-33.83,26.72,6.86-42.59-9.07-5.34-27.48,46.7,7.71,4.53.52-.91c.13-.23,11.53-20.02,17.97-31.09l-6.71,38.93,5.81,3.41,30.71-24.27c-6.51,10.68-18.19,30.11-18.33,30.35l-.54.89,7.77,4.57,27.48-46.7-8.88-5.22Z"/>
  <rect class="cls-1" x="426.62" y="698.99" width="54.18" height="9.01" transform="translate(-369.17 857.17) rotate(-67.76)"/>
  <polygon class="cls-1" points="499.77 729.82 485.06 686.83 484.88 686.3 476.63 684.13 462.82 736.52 471.6 738.83 481.34 701.9 496.11 745.3 504.21 747.43 518.03 695.04 509.53 692.81 499.77 729.82"/>
  <path class="cls-1" d="M554.9,729.7c-.26,3.42-.7,7.31-2.5,10.15-1.97,3.1-5.34,4.42-10.29,4.04-10.62-.82-10.96-7.58-10.34-15.67l2.41-31.35-9.13-.7-2.33,30.25c-.41,5.32-.92,11.94,1.84,16.86,3.08,5.46,9.04,8.56,17.7,9.23.8.06,1.58.09,2.34.09,7.99,0,13.97-3.34,16.97-9.55,1.62-3.29,2.08-7.76,2.38-11.68l2.46-32.02-9.13-.7-2.39,31.06Z"/>
  <path class="cls-1" d="M615.26,694.76l-10.73,41.74-20.33-38.03-10.45,1.25,6.43,53.79,8.88-1.06-.13-1.03c-.03-.27-2.95-22.91-4.54-35.61l18.24,35.03,6.69-.8,9.73-37.91c1.29,12.44,3.77,34.97,3.8,35.24l.11,1.04,8.95-1.07-6.43-53.79-10.23,1.22Z"/>
  <path class="cls-1" d="M691.11,697.19c2.82-3.42,3.33-7.96,1.35-12.86-2.15-5.3-5.76-8.16-10.73-8.5-4.13-.27-8.43,1.2-12.1,2.68l-18.27,7.4,20.33,50.22,16.97-6.87c6.14-2.49,20.53-8.31,14.51-23.16-2.3-5.68-6.61-8.82-12.08-8.92ZM662.81,689.98l9.71-3.94c2.15-.87,4.91-1.84,7.21-1.59,2.23.24,3.77,1.57,4.83,4.2.96,2.38.67,4.55-.87,6.47-1.25,1.56-5.96,3.47-7.51,4.09l-8.28,3.35-5.1-12.59ZM684.84,721.98l-7.8,3.16-6.09-15.05,9.64-3.91c5.33-2.16,11.25-3.88,14.06,3.06,2.81,6.94-3.59,10.21-9.82,12.74Z"/>
  <polygon class="cls-1" points="724.82 702.73 716.89 689.67 740.16 675.52 735.87 668.46 712.59 682.61 705.43 670.81 730.09 655.82 725.64 648.51 693.28 668.17 721.42 714.47 754.53 694.34 750.24 687.28 724.82 702.73"/>
  <polygon class="cls-1" points="755.91 622.82 781.1 651.64 736.71 639.6 730.28 645.21 765.94 686 772.78 680.03 747.64 651.27 791.86 663.35 798.18 657.83 762.52 617.04 755.91 622.82"/>
  <polygon class="cls-1" points="809.17 633.01 797.31 623.37 814.5 602.25 808.08 597.03 790.9 618.16 780.19 609.45 798.4 587.06 791.75 581.66 767.86 611.03 809.9 645.22 834.35 615.15 827.93 609.94 809.17 633.01"/>
  <polygon class="cls-1" points="838.31 562.68 831.23 558.55 819.09 579.32 807.18 572.36 820.48 549.6 813.14 545.32 795.27 575.91 842.04 603.25 846.63 595.41 826.17 583.45 838.31 562.68"/>
  <rect class="cls-1" x="837.79" y="517.95" width="9.01" height="54.19" transform="translate(5.93 1099.15) rotate(-66.43)"/>
  <path class="cls-1" d="M871.22,488.34l-.98-.49-3.49,8.18.75.47c6.38,3.99,9.01,10.36,7.05,17.04-3.22,10.97-13.92,12.06-22.85,9.44-4.48-1.32-18.8-6.7-14.71-20.63,1.99-6.76,7.22-10.18,14.68-9.63l.91.07,1.72-8.88-1.07-.16c-11.64-1.7-20.7,4.43-24.22,16.41-2.27,7.71-1.39,14.78,2.53,20.45,3.58,5.17,9.6,9.12,17.41,11.42,3.76,1.1,7.3,1.65,10.59,1.65,11.12,0,19.29-6.18,22.66-17.65,3.5-11.92-.71-22.53-10.99-27.68Z"/>
  <rect class="cls-1" x="858.93" y="445.69" width="9.01" height="54.19" transform="translate(260.88 1251.22) rotate(-80.96)"/>
  <path class="cls-1" d="M866.65,407.01c-16.17,0-26.8,9.93-27.18,25.53-.19,7.71,2.44,14.32,7.61,19.11,4.85,4.49,11.75,7.06,19.43,7.25.29,0,.58.01.87.01,13.49,0,27.01-7.74,27.44-25.31.19-7.85-2.44-14.54-7.6-19.33-4.84-4.49-11.79-7.06-19.58-7.26-.33,0-.66-.01-.98-.01ZM886.77,433.48c-.13,5.34-2.22,9.49-6.21,12.32-3.57,2.53-8.62,3.85-14.27,3.72-5.73-.14-10.52-1.82-13.86-4.85-3.34-3.03-5.04-7.28-4.91-12.29.12-5.07,2.14-9.25,5.84-12.1,3.29-2.53,7.81-3.9,12.79-3.9.22,0,.45,0,.67,0,9.84.24,20.26,4.86,19.96,17.1Z"/>
  <path class="cls-1" d="M525.05,605.7c-.67,3.46-3.01,5.14-7.15,5.14h-.35v3.55h6.58v20.32h4.62v-29.29h-3.65l-.05.28Z"/>
  <path class="cls-1" d="M555.21,607.2c-1.91-1.62-4.12-2.4-6.76-2.4-5.98,0-10.16,4.14-10.16,10.07s3.83,9.87,9.54,9.87c2.95,0,5.45-1.13,7.15-3.21-.18,2.95-1.19,9.47-6.7,9.47-2.84,0-4.63-1.67-4.91-4.57l-.03-.34-4.58.34.03.35c.47,5.04,3.89,8.18,8.91,8.18,4.38,0,11.73-2.01,11.73-15.45,0-5.82-1.38-9.85-4.22-12.3ZM548.32,620.61c-3.16,0-5.45-2.36-5.45-5.61,0-3.71,2.14-6.11,5.45-6.11s5.74,2.55,5.74,6.07c0,3.33-2.36,5.66-5.74,5.66Z"/>
  <path class="cls-1" d="M582.39,605.38h-3.58l-13.5,18.32v4.43h12.54v6.58h4.54v-6.58h4.3v-4.04h-4.3v-18.71ZM577.86,624.09h-7.77l7.98-11.43c-.08,3.2-.18,9.85-.21,11.43Z"/>
  <path class="cls-1" d="M603.95,615.02c-2.98,0-5.58,1.19-7.2,3.24.47-6.34,2.75-9.55,6.79-9.55,2.76,0,4.72,1.83,4.87,4.56l.02.35,4.47-.29-.04-.36c-.6-5.14-4.05-8.21-9.24-8.21-2.66,0-11.35,1.1-11.35,15.29,0,9.62,3.92,14.91,11.02,14.91,6.05,0,10.11-4.01,10.11-9.99s-3.97-9.95-9.45-9.95ZM603.37,630.92c-3.38,0-5.74-2.48-5.74-6.03,0-3.3,2.43-5.7,5.78-5.7s5.45,2.19,5.45,5.86c0,3.45-2.26,5.86-5.49,5.86Z"/>
  <path class="cls-1" d="M260.64,381.05c0,4.57,3.71,8.28,8.28,8.28s8.28-3.71,8.28-8.28-3.71-8.28-8.28-8.28-8.28,3.71-8.28,8.28Z"/>
  <path class="cls-1" d="M870.46,381.05c0-4.57-3.71-8.28-8.28-8.28s-8.28,3.71-8.28,8.28,3.71,8.28,8.28,8.28,8.28-3.71,8.28-8.28Z"/>
</svg>