<?xml version="1.0" encoding="UTF-8"?>
<svg id="_레이어_1" data-name="레이어 1" xmlns="http://www.w3.org/2000/svg" viewBox="0 0 1133.86 850.39">
  <defs>
    <style>
      .cls-1 {
        fill: #555656;
        stroke-width: 0px;
      }
    </style>
  </defs>
  <polygon class="cls-1" points="913.52 369.51 913.52 259.1 692.71 259.1 692.71 259.1 582.31 259.1 582.31 383.31 582.31 466.11 582.31 479.91 582.31 590.31 692.71 590.31 913.52 590.31 913.52 479.91 692.71 479.91 692.71 466.11 913.52 466.11 913.52 383.31 692.71 383.31 692.71 369.51 913.52 369.51"/>
  <polygon class="cls-1" points="496.35 370.48 551.55 370.48 551.55 260.08 220.34 260.08 220.34 370.48 275.54 370.48 220.34 591.29 330.75 591.29 385.95 370.48 441.15 591.29 551.55 591.29 496.35 370.48"/>
</svg>