<?xml version="1.0" encoding="UTF-8"?>
<svg id="_레이어_1" data-name="레이어 1" xmlns="http://www.w3.org/2000/svg" viewBox="0 0 566.93 425.2">
  <defs>
    <style>
      .cls-1 {
        fill: #181818;
        stroke-width: 0px;
      }
    </style>
  </defs>
  <polygon class="cls-1" points="463.99 183.59 463.99 126.09 348.98 126.09 348.98 126.09 291.47 126.09 291.47 190.78 291.47 233.91 291.47 241.1 291.47 298.6 348.98 298.6 463.99 298.6 463.99 241.1 348.98 241.1 348.98 233.91 463.99 233.91 463.99 190.78 348.98 190.78 348.98 183.59 463.99 183.59"/>
  <polygon class="cls-1" points="246.7 184.1 275.46 184.1 275.46 126.6 102.94 126.6 102.94 184.1 131.7 184.1 102.94 299.11 160.45 299.11 189.2 184.1 217.95 299.11 275.46 299.11 246.7 184.1"/>
</svg>