<?xml version="1.0" encoding="UTF-8"?>
<svg id="_레이어_1" data-name="레이어 1" xmlns="http://www.w3.org/2000/svg" viewBox="0 0 1133.86 850.39">
  <defs>
    <style>
      .cls-1 {
        fill: #555656;
        stroke-width: 0px;
      }
    </style>
  </defs>
  <g>
    <path class="cls-1" d="M210.18,537.89c21.55,0,34.22,16.79,34.22,38.36,0,20.96-12.68,37.75-34.22,37.75-21.55,0-34.22-16.79-34.22-37.75,0-21.57,12.68-38.36,34.22-38.36ZM210.18,600.57c13.75,0,18.91-12.21,18.91-24.32,0-12.72-5.17-24.93-18.91-24.93-13.75,0-18.92,12.21-18.92,24.93s5.17,24.32,18.91,24.32Z"/>
    <path class="cls-1" d="M253.36,559.67h13.16v6.72h.19c3.31-5.6,8.78-8.14,15.02-8.14,15.79,0,22.91,13.33,22.91,28.29,0,14.04-7.41,27.16-22.13,27.16-6.04,0-11.8-2.75-15.11-7.94h-.19v25.03h-13.84s0-71.12,0-71.12ZM290.8,586.12c0-8.34-3.22-16.99-12.09-16.99-9.07,0-11.99,8.44-11.99,16.99s3.12,16.69,12.09,16.69c9.07,0,11.99-8.14,11.99-16.69Z"/>
    <path class="cls-1" d="M324.33,589.48c.39,9.16,4.68,13.33,12.38,13.33,5.56,0,10.04-3.56,10.92-6.82h12.19c-3.9,12.41-12.19,17.7-23.6,17.7-15.89,0-25.74-11.4-25.74-27.68s10.43-27.78,25.74-27.77c17.16,0,25.44,15.06,24.47,31.24h-36.37ZM346.85,580.33c-1.27-7.33-4.29-11.19-11.02-11.19-8.77,0-11.31,7.12-11.5,11.19h22.52Z"/>
    <path class="cls-1" d="M368.88,559.68h13.16v7.33h.29c3.51-5.9,9.56-8.75,15.41-8.75,14.72,0,18.42,8.65,18.42,21.67v32.35s-13.85,0-13.85,0v-29.71c0-8.65-2.44-12.92-8.87-12.92-7.51,0-10.72,4.37-10.72,15.06v27.57h-13.85v-52.6Z"/>
    <path class="cls-1" d="M465.68,588.17c0,9.67,7.21,13.43,15.4,13.43,5.36,0,13.55-1.63,13.55-9.05,0-7.83-10.43-9.16-20.67-12.01-10.33-2.85-20.77-7.02-20.77-20.66,0-14.85,13.46-21.98,26.03-21.98,14.53,0,27.88,6.61,27.88,23.4h-14.82c-.49-8.75-6.43-10.99-13.75-10.99-4.87,0-10.53,2.14-10.53,8.24,0,5.6,3.31,6.31,20.77,10.99,5.07,1.32,20.67,4.68,20.67,21.16,0,13.33-10.04,23.3-28.96,23.3-15.4,0-29.83-7.94-29.64-25.84h14.82Z"/>
    <path class="cls-1" d="M541.53,558.26c15.89,0,26.13,10.99,26.13,27.78s-10.24,27.67-26.13,27.67c-15.79,0-26.03-10.99-26.03-27.68s10.24-27.78,26.03-27.77ZM541.53,602.82c9.46,0,12.28-8.45,12.28-16.79s-2.83-16.89-12.28-16.89c-9.36,0-12.19,8.44-12.19,16.89s2.83,16.79,12.19,16.79Z"/>
    <path class="cls-1" d="M623.9,612.29h-13.16s0-7.33,0-7.33h-.29c-3.51,5.9-9.56,8.75-15.41,8.75-14.72,0-18.42-8.65-18.42-21.67v-32.35h13.84v29.71c0,8.65,2.44,12.92,8.87,12.92,7.51,0,10.72-4.38,10.72-15.06v-27.57h13.84s0,52.6,0,52.6Z"/>
    <path class="cls-1" d="M634.42,559.69h13.16v9.77h.19c2.53-6.61,9.36-11.19,16.09-11.19.97,0,2.14.2,3.02.51v13.43c-1.27-.31-3.31-.51-4.97-.51-10.14,0-13.65,7.63-13.65,16.89v23.71h-13.85v-52.6Z"/>
    <path class="cls-1" d="M704.91,578.21c-.88-5.9-4.48-9.05-10.24-9.05-8.87,0-11.8,9.36-11.8,17.09s2.83,16.58,11.5,16.59c6.43,0,10.14-4.27,11.02-10.68h13.36c-1.76,13.94-11.02,21.57-24.28,21.57-15.21,0-25.44-11.19-25.44-26.96s9.36-28.49,25.74-28.49c11.89,0,22.81,6.51,23.69,19.94h-13.55Z"/>
    <path class="cls-1" d="M737.95,589.5c.39,9.16,4.68,13.33,12.38,13.33,5.56,0,10.04-3.56,10.92-6.82h12.19c-3.9,12.41-12.19,17.7-23.6,17.7-15.89,0-25.74-11.4-25.74-27.68s10.43-27.78,25.74-27.77c17.16,0,25.44,15.06,24.47,31.24h-36.37ZM760.48,580.35c-1.27-7.33-4.29-11.19-11.02-11.19-8.77,0-11.31,7.12-11.5,11.19h22.52Z"/>
    <path class="cls-1" d="M811.07,539.65h15.31s0,59.22,0,59.22h33.93s0,13.43,0,13.43h-49.24s0-72.65,0-72.65Z"/>
    <path class="cls-1" d="M866.83,575.88c.78-13.53,12.38-17.6,23.69-17.6,10.04,0,22.13,2.34,22.13,14.96v27.37c0,4.78.49,9.56,1.75,11.7h-14.04c-.49-1.63-.88-3.36-.97-5.09-4.39,4.78-10.82,6.51-16.96,6.51-9.55,0-17.16-4.99-17.16-15.77,0-11.9,8.58-14.75,17.16-15.97,8.48-1.32,16.38-1.02,16.38-6.92,0-6.21-4.09-7.12-8.97-7.12-5.26,0-8.68,2.24-9.16,7.94h-13.84ZM898.8,586.56c-2.34,2.14-7.21,2.24-11.5,3.05-4.29.91-8.19,2.44-8.19,7.73s4,6.72,8.48,6.72c10.82,0,11.21-8.95,11.21-12.11v-5.39Z"/>
    <path class="cls-1" d="M923.37,539.66h13.84s0,26.45,0,26.45h.19c3.41-5.39,9.65-7.83,15.89-7.83,10.04,0,20.86,8.45,20.86,27.67s-10.82,27.78-20.87,27.78c-7.41,0-13.55-2.34-16.57-8.14h-.19v6.72h-13.16s0-72.65,0-72.65ZM948.52,569.17c-8.19,0-11.8,8.04-11.8,16.89s3.61,16.79,11.8,16.79c8.19,0,11.8-8.04,11.8-16.79s-3.61-16.89-11.8-16.89Z"/>
  </g>
  <g>
    <path class="cls-1" d="M289.29,498.21c-74.68,0-135.43-60.75-135.43-135.43s60.76-135.43,135.43-135.43,135.43,60.75,135.43,135.43-60.76,135.43-135.43,135.43ZM289.29,248.47c-63.03,0-114.31,51.28-114.31,114.31s51.28,114.31,114.31,114.31,114.31-51.28,114.31-114.31-51.28-114.31-114.31-114.31Z"/>
    <path class="cls-1" d="M722.51,493.18h-315.9l157.95-273.57,157.95,273.57ZM443.2,472.06h242.74l-121.37-210.22-121.37,210.22Z"/>
    <g>
      <path class="cls-1" d="M980,492.46h-235.7v-78.82h235.7v78.82ZM765.42,471.34h193.46v-36.58h-193.46v36.58Z"/>
      <path class="cls-1" d="M980,401.4h-235.7v-78.82h235.7v78.82ZM765.42,380.28h193.46v-36.58h-193.46v36.58Z"/>
      <path class="cls-1" d="M980,310.34h-235.7v-78.82h235.7v78.82ZM765.42,289.22h193.46v-36.58h-193.46v36.58Z"/>
    </g>
  </g>
</svg>