<?xml version="1.0" encoding="UTF-8"?>
<svg id="_레이어_1" data-name="레이어 1" xmlns="http://www.w3.org/2000/svg" viewBox="0 0 1133.86 850.39">
  <defs>
    <style>
      .cls-1 {
        fill: #555656;
        stroke-width: 0px;
      }
    </style>
  </defs>
  <path class="cls-1" d="M459.27,371.6c60.83,0,101.7-43.98,101.7-109.43s-41.82-108.74-101.7-108.74h-141.15l.75,218.18h140.4ZM327.18,162.45h132.09c55.43,0,92.68,40.07,92.68,99.72s-37.25,100.41-92.68,100.41h-131.41l-.68-200.13Z"/>
  <polygon class="cls-1" points="245.62 141.81 254.64 141.81 254.64 99.08 297.38 99.08 297.38 90.06 245.62 90.06 245.62 141.81"/>
  <polygon class="cls-1" points="254.64 705.54 247.3 705.54 245.62 705.76 245.62 760.34 297.38 760.34 297.38 751.32 254.64 751.32 254.64 705.54"/>
  <path class="cls-1" d="M632.79,262.17c0-49.2-16.3-91.8-47.15-123.22l-.5-.5h-13.37l3.1,2.91c31.53,29.64,48.89,72.54,48.89,120.81,0,96.44-66.77,163.8-162.37,163.8h-142.54v282.95h9.02v-273.93h133.52c100.92,0,171.4-71.06,171.4-172.82Z"/>
  <polygon class="cls-1" points="839.31 90.06 839.31 99.08 879.22 99.08 879.22 141.81 888.24 141.81 888.24 90.06 839.31 90.06"/>
  <polygon class="cls-1" points="805.99 461.19 569.38 461.19 569.38 533.58 805.99 533.58 805.99 702.72 529.25 702.72 529.25 711.74 815.01 711.74 815.01 524.56 578.4 524.56 578.4 470.21 815.01 470.21 815.01 138.44 805.99 138.44 805.99 461.19"/>
  <polygon class="cls-1" points="879.22 751.32 839.24 751.32 839.24 760.34 888.24 760.34 888.24 705.76 879.22 705.76 879.22 751.32"/>
</svg>