<?xml version="1.0" encoding="UTF-8"?>
<svg id="_레이어_1" data-name="레이어 1" xmlns="http://www.w3.org/2000/svg" viewBox="0 0 566.93 425.2">
  <defs>
    <style>
      .cls-1 {
        fill: #231815;
        stroke-width: 0px;
      }
    </style>
  </defs>
  <path class="cls-1" d="M230.24,186.1c30.07,0,50.28-21.74,50.28-54.1s-20.68-53.76-50.28-53.76h-69.78l.37,107.87h69.41ZM164.93,82.7h65.31c27.41,0,45.82,19.81,45.82,49.3s-18.41,49.64-45.82,49.64h-64.97l-.34-98.94Z"/>
  <polygon class="cls-1" points="124.61 72.49 129.07 72.49 129.07 51.37 150.2 51.37 150.2 46.91 124.61 46.91 124.61 72.49"/>
  <polygon class="cls-1" points="129.07 351.2 125.44 351.2 124.61 351.31 124.61 378.29 150.2 378.29 150.2 373.83 129.07 373.83 129.07 351.2"/>
  <path class="cls-1" d="M316.03,132c0-24.32-8.06-45.39-23.31-60.92l-.24-.25h-6.61l1.53,1.44c15.59,14.65,24.17,35.86,24.17,59.73,0,47.68-33.01,80.98-80.28,80.98h-70.47v139.89h4.46v-135.43h66.01c49.89,0,84.74-35.13,84.74-85.44Z"/>
  <polygon class="cls-1" points="418.13 46.91 418.13 51.37 437.86 51.37 437.86 72.49 442.32 72.49 442.32 46.91 418.13 46.91"/>
  <polygon class="cls-1" points="401.66 230.39 284.68 230.39 284.68 266.18 401.66 266.18 401.66 349.8 264.84 349.8 264.84 354.26 406.12 354.26 406.12 261.72 289.14 261.72 289.14 234.85 406.12 234.85 406.12 70.83 401.66 70.83 401.66 230.39"/>
  <polygon class="cls-1" points="437.86 373.83 418.1 373.83 418.1 378.29 442.32 378.29 442.32 351.31 437.86 351.31 437.86 373.83"/>
</svg>