<?xml version="1.0" encoding="UTF-8"?>
<svg id="_레이어_1" data-name="레이어 1" xmlns="http://www.w3.org/2000/svg" viewBox="0 0 1133.86 850.39">
  <defs>
    <style>
      .cls-1 {
        fill: #555656;
        stroke-width: 0px;
      }
    </style>
  </defs>
  <path class="cls-1" d="M600.71,556.6h-63.71c3.31-103.2-37.01-188.24-108.17-262.12v66.42c-2.36.26-4.04.61-5.72.61-19.17.04-38.33-.1-57.5.12-4.41.05-5.8-1.29-5.75-5.71.21-17.78.08-35.56.08-53.35,0-2.15,0-4.3,0-6.45-71.38,72.16-111.87,157.06-108.46,260.41h-63.81c3.71-103.51-37.43-188.87-108.63-262.75,2.88-.2,4.54-.42,6.2-.42,24.9-.02,49.79.09,74.69-.12,4.21-.03,6.89,1.4,9.52,4.51,19.8,23.45,34.79,49.76,46.87,77.83.85,1.98,1.78,3.92,3.22,7.06,2.61-5.79,4.76-10.68,7.01-15.53,11.68-25.17,25.5-49.03,43.94-69.93,1.78-2.02,5.2-3.68,7.87-3.69,77.25-.19,154.5-.2,231.75,0,2.67,0,6.09,1.71,7.87,3.74,20.05,22.99,34.92,49.2,47.06,77.05,1.09,2.51,2.24,4.99,3.76,8.39,2.62-5.85,4.8-10.86,7.1-15.82,11.33-24.48,24.97-47.52,42.29-68.32,3.16-3.8,6.44-5.36,11.53-5.34,47.01.22,94.02.13,141.04.13h7.6c0,8.56,0,16.41,0,24.26,0,13.04-.05,26.08.03,39.12.02,2.97-.45,4.86-4.12,4.84-20.55-.11-41.1-.06-61.64-.11-.74,0-1.47-.37-2.93-.76v-65.35c-71.6,72.39-112.22,157.39-109,261.25Z"/>
  <path class="cls-1" d="M917.5,557.2v-75.63c6.46-1.52,12.89-2.48,18.94-4.55,23.54-8.06,38.7-32.81,35.85-57.9-2.91-25.64-23.08-46.11-48.24-48.58-4.92-.48-7.09-1.73-6.99-7.35.37-21.13.14-42.27.16-63.4,0-1.93.18-3.86.31-6.6,48.24.08,87.18,18.42,113.54,58.37,30.64,46.44,31.7,95.5,2.72,143.04-25.96,42.58-65.75,62.43-116.29,62.61Z"/>
  <path class="cls-1" d="M891.63,556.66h-67.65v-262.82h67.65v262.82Z"/>
  <path class="cls-1" d="M360.4,397.75h67.66v158.71h-67.66v-158.71Z"/>
  <path class="cls-1" d="M778.01,397.96v158.62h-67.86v-158.62h67.86Z"/>
</svg>