<?xml version="1.0" encoding="UTF-8"?>
<svg id="_레이어_1" data-name="레이어 1" xmlns="http://www.w3.org/2000/svg" viewBox="0 0 566.93 425.2">
  <defs>
    <style>
      .cls-1 {
        fill: #000;
        stroke-width: 0px;
      }
    </style>
  </defs>
  <path class="cls-1" d="M299.69,275.72h-30.6c1.59-49.57-17.78-90.42-51.96-125.91v31.91c-1.13.13-1.94.29-2.75.29-9.21.02-18.41-.05-27.62.06-2.12.02-2.79-.62-2.76-2.74.1-8.54.04-17.08.04-25.62,0-1.03,0-2.06,0-3.1-34.29,34.66-53.74,75.44-52.1,125.09h-30.65c1.78-49.72-17.98-90.72-52.18-126.21,1.39-.1,2.18-.2,2.98-.2,11.96-.01,23.92.04,35.87-.06,2.02-.02,3.31.67,4.57,2.17,9.51,11.26,16.71,23.9,22.51,37.39.41.95.86,1.88,1.55,3.39,1.25-2.78,2.29-5.13,3.37-7.46,5.61-12.09,12.25-23.55,21.1-33.59.86-.97,2.5-1.77,3.78-1.77,37.11-.09,74.21-.09,111.32,0,1.28,0,2.93.82,3.78,1.8,9.63,11.04,16.77,23.63,22.61,37.01.53,1.2,1.07,2.4,1.81,4.03,1.26-2.81,2.31-5.22,3.41-7.6,5.44-11.76,12-22.82,20.31-32.81,1.52-1.82,3.09-2.58,5.54-2.56,22.58.11,45.16.06,67.74.06h3.65c0,4.11,0,7.88,0,11.65,0,6.26-.02,12.53.01,18.79,0,1.43-.22,2.33-1.98,2.32-9.87-.05-19.74-.03-29.61-.05-.35,0-.71-.18-1.41-.37v-31.39c-34.39,34.77-53.9,75.6-52.36,125.49Z"/>
  <path class="cls-1" d="M451.86,276.01v-36.33c3.1-.73,6.19-1.19,9.1-2.19,11.31-3.87,18.59-15.76,17.22-27.81-1.4-12.32-11.09-22.15-23.17-23.34-2.36-.23-3.4-.83-3.36-3.53.18-10.15.07-20.3.08-30.45,0-.93.08-1.86.15-3.17,23.17.04,41.88,8.85,54.54,28.04,14.72,22.31,15.23,45.87,1.31,68.71-12.47,20.45-31.58,29.99-55.86,30.08Z"/>
  <path class="cls-1" d="M439.43,275.74h-32.49v-126.24h32.49v126.24Z"/>
  <path class="cls-1" d="M184.26,199.41h32.5v76.23h-32.5v-76.23Z"/>
  <path class="cls-1" d="M384.85,199.51v76.19h-32.6v-76.19h32.6Z"/>
</svg>