<?xml version="1.0" encoding="UTF-8"?>
<svg id="_레이어_1" data-name="레이어 1" xmlns="http://www.w3.org/2000/svg" viewBox="0 0 1133.86 850.39">
  <defs>
    <style>
      .cls-1 {
        fill: #555656;
        stroke-width: 0px;
      }
    </style>
  </defs>
  <path class="cls-1" d="M418.81,429.52c-.42-.02-.83-.04-1.25-.07-8.51-25.37-17.01-50.75-25.39-75.73-1.63-.25-2.29-.43-2.94-.44-5.56-.03-11.12-.08-16.68-.03-5.22.05-5.29.08-6.98,5.15-3.38,10.11-6.66,20.25-10.01,30.37-4.45,13.47-8.93,26.94-13.4,40.41-.46.01-.93.03-1.39.04-6.62-25.22-13.24-50.43-19.85-75.65h-35.62c13.39,44,26.65,87.37,40.16,130.55h27.66c8.72-26.01,17.35-51.79,25.98-77.56.5,0,1,0,1.49.01,8.71,25.94,17.42,51.87,26.01,77.48h27.22c5.32-12.37,39.13-125.4,39-130.44h-34.09c-6.7,25.48-13.32,50.68-19.94,75.89Z"/>
  <path class="cls-1" d="M852.42,354.45c-13.09-3.58-26.4-3.27-39.69-1.74-4.14.48-8.29,1.68-12.2,3.16-7.75,2.93-14.18,7.77-19.66,14.57,7.27,7.1,14.06,13.73,21.04,20.54,2.18-1.92,3.66-3.65,5.51-4.76,3.2-1.91,6.52-4.54,9.99-4.88,6.75-.67,13.72-.54,20.45.32,7.89,1.01,11.71,6.7,12.65,14.26.37,2.99.06,6.06.06,9.53-2.79.17-4.96.41-7.13.43-6.45.05-12.91-.26-19.34.1-6.85.38-13.85.64-20.46,2.25-14.01,3.41-23.84,11.96-26.88,26.5-1.16,5.55-1.26,11.58-.5,17.21,1.73,12.84,7.89,23.53,20.13,28.69,17.89,7.55,35.78,8.3,52.38-4.08.64-.48,1.4-.81,2.56-1.48.36,3.29.66,6.04,1,9.11h31.51c.29-1.72.63-2.79.63-3.85.03-28.68.43-57.36-.12-86.03-.4-20.99-11.66-34.3-31.95-39.85ZM850.06,443.79c-1.31,7.35-7.02,12.69-14.45,13.47-5.03.52-10.19.59-15.22.09-8.04-.8-12.14-5.84-12.11-13.85.03-8,4.23-13.09,12.39-13.5,9.68-.49,19.39-.12,30.29-.12-.3,5.2-.14,9.64-.9,13.91Z"/>
  <path class="cls-1" d="M247.34,355.52c-17.14-5.4-34.61-5.32-51.93-.84-9.23,2.39-16.64,7.95-23.03,15.77,7.22,7,14.14,13.7,20.25,19.63,6.03-3.36,10.72-7.39,16.03-8.56,6.31-1.39,13.31-1.15,19.76-.1,9.38,1.53,13.46,7.27,13.77,16.85.07,2.17.01,4.35.01,7.65-9.29,0-17.49-.12-25.68.03-8.66.16-17.35.35-25.61,3.49-12.62,4.79-20.75,13.6-23.05,27.02-.81,4.75-.73,9.79-.25,14.61,1.55,15.93,11.98,28.12,27.48,32.4,3.62,1,7.37,1.75,11.11,2.04,12.26.94,23.98-.5,33.91-8.78.7-.59,1.7-.83,2.78-1.34.31,3.22.56,5.82.8,8.31,7.91,1.52,27.35,1.16,32.01-.55.11-1.25.34-2.57.34-3.89.02-27.79.18-55.58-.05-83.37-.17-20.49-10.09-34.51-28.64-40.35ZM241.92,441.99c-.97,8.68-6.91,14.63-15.6,15.34-5.26.43-10.67.53-15.87-.21-7.13-1.02-10.73-6.17-10.68-13.73.05-7.45,3.86-12.74,11.16-13.22,10.08-.65,20.24-.16,31.05-.16,0,4.51.34,8.28-.07,11.97Z"/>
  <path class="cls-1" d="M554.26,354.9c-13.67-4.01-27.65-3.88-41.61-2.16-4.57.56-9.18,1.87-13.42,3.65-7.15,3-13.37,7.45-17.34,13.1,6.77,7.38,13.05,14.23,19.84,21.63,2.43-2.11,3.94-3.78,5.77-4.94,2.78-1.75,5.62-3.75,8.72-4.57,7.62-2.02,15.38-1.79,23.02.25,5.66,1.51,9.4,5.25,10.58,10.87.84,3.98.61,8.17.89,12.78-3.6.16-6.22.32-8.84.38-9.77.25-19.56.15-29.3.78-24.23,1.57-38.45,18.02-36.8,42.15,1.23,18.09,13.13,31.88,30.73,35.53,2.82.58,5.7,1.03,8.57,1.22,12.27.78,23.97-.72,33.81-9.09.59-.5,1.42-.71,2.42-1.19.27,3.12.5,5.73.72,8.23,6.42,1.54,26.74,1.39,31.84-.17.16-.59.47-1.22.47-1.85,0-29.77.47-59.56-.2-89.31-.43-18.82-11.71-31.96-29.87-37.28ZM549.75,444.98c-1.39,7.17-6.74,11.06-13.48,12.12-5.42.85-11.12.74-16.6.13-7.59-.84-11.54-6.09-11.47-13.85.07-7.64,4.28-12.91,11.99-13.33,9.73-.53,19.51-.13,30.68-.13-.37,5.49-.22,10.38-1.12,15.06Z"/>
  <path class="cls-1" d="M105.51,429.73c-.47.01-.94.03-1.41.04-8.6-25.47-17.21-50.94-25.75-76.24h-35.08c.96,3.01,1.56,5.12,2.3,7.17,3.03,8.35,6.1,16.69,9.17,25.03,10.29,27.93,20.62,55.85,30.8,83.82.85,2.34,1.35,5.26.76,7.58-1.38,5.36-3.47,10.54-5.4,15.74-2.19,5.89-6.49,8.74-12.82,8.66-3.03-.04-6.07.25-9.85.42-.06,10.24-.28,19.85.13,29.81,6.6,0,12.32.26,18.01-.05,16.81-.91,27.35-9.93,33.07-25.5,18-49,36.16-97.94,54.23-146.92.63-1.72.88-3.58,1.37-5.6h-34.83c-8.3,25.55-16.5,50.8-24.7,76.05Z"/>
  <path class="cls-1" d="M714.03,429.71c-.47.02-.95.04-1.42.06-8.62-25.47-17.24-50.93-25.86-76.4-12-.13-23.18-.26-35.05.04,1.01,3.17,1.61,5.27,2.35,7.31,3.5,9.6,7.03,19.19,10.55,28.79,9.81,26.69,19.66,53.37,29.39,80.09.79,2.17,1.54,4.86.97,6.94-1.57,5.77-3.69,11.41-5.89,16.98-2.08,5.27-6.13,7.96-11.91,7.98-3.26.01-6.52.25-10.03.4v29.85c6.23,0,11.95.26,17.64-.05,16.79-.91,27.39-9.87,33.11-25.46,18-49.01,36.16-97.96,54.23-146.94.64-1.73.92-3.59,1.43-5.63h-34.84c-8.29,25.53-16.48,50.78-24.68,76.03Z"/>
  <path class="cls-1" d="M1089.84,434.11c-2.38-15.25-13.47-25.61-30.27-28.72-7.4-1.37-14.98-1.8-22.47-2.72-3.97-.49-8.04-.67-11.85-1.75-7.92-2.25-9.93-11.19-3.84-16.78,1.73-1.59,4.06-3.07,6.3-3.44,4.55-.75,9.26-1.22,13.84-.89,8.69.63,17.09,2.65,23.99,7.95,6.9-6.98,13.4-13.56,20.44-20.69-4.81-5.4-10.91-8.99-17.74-11.12-16-5-32.46-6.17-48.7-2.23-19.03,4.62-36.04,17.69-33.95,44.2,1.14,14.51,8.19,24.88,22.28,29.26,6.92,2.15,14.31,2.91,21.52,4.03,6.78,1.06,13.67,1.5,20.42,2.72,4.61.83,7.19,4.18,7.73,8.89.54,4.73-1.51,8.46-6.17,10.77-2.16,1.07-4.52,1.88-6.88,2.41-7.97,1.78-15.9.95-23.8-.66-7.56-1.54-13.95-5.44-19.68-9.86-7.21,7.37-14.15,14.45-21.43,21.89,6.98,7.68,16.27,13.07,27.02,15.77,12.18,3.06,24.66,3.44,37.1,2.39,10.48-.89,20.56-3.49,29.51-9.45,15.27-10.16,19.26-24.93,16.6-41.97Z"/>
  <path class="cls-1" d="M959.1,455.85c-8.1-.28-11.28-3.43-11.62-11.37-.03-.67-.02-1.33-.02-2,0-17.77-.02-35.54.02-53.32,0-1.91.29-3.83.5-6.52h21.87v-25.14c-7.58-1.45-14.97.52-22.66-1.46v-37.4c-11.45-.11-22.17-.19-33.58.01v37.79c-4.74.36-8.82.67-13.17,1.01v24.86c4.23.33,8.13.63,12.83,1,.13,2.75.31,4.93.32,7.1.03,10.66,0,21.33.02,31.99,0,8.44-.28,16.9.11,25.32.71,15.34,6.82,27.63,21.73,33.72,10.97,4.48,22.56,3.22,33.88,2.77,1.63-7.27,1.39-23.32-.41-28.35-3.18,0-6.51.1-9.82-.02Z"/>
  <path class="cls-1" d="M1009.07,512.14c0,.6,0,1.19,0,1.79,14.02,4.45,28.05,8.91,43.16,13.7.51-10.1.47-19.14.04-29.23-15.15,4.82-29.18,9.28-43.2,13.74Z"/>
</svg>