<?xml version="1.0" encoding="UTF-8"?>
<svg id="_레이어_1" data-name="레이어 1" xmlns="http://www.w3.org/2000/svg" viewBox="0 0 566.93 425.2">
  <defs>
    <style>
      .cls-1 {
        fill: #000;
        stroke-width: 0px;
      }
    </style>
  </defs>
  <path class="cls-1" d="M210.36,214.73c-.21-.01-.41-.02-.62-.03-4.2-12.52-8.4-25.04-12.53-37.37-.81-.12-1.13-.21-1.45-.21-2.74-.02-5.49-.04-8.23-.01-2.58.02-2.61.04-3.44,2.54-1.67,4.99-3.29,9.99-4.94,14.99-2.2,6.65-4.41,13.3-6.61,19.94-.23,0-.46.01-.69.02-3.27-12.44-6.53-24.89-9.8-37.33h-17.58c6.61,21.72,13.15,43.12,19.82,64.43h13.65c4.3-12.84,8.56-25.56,12.82-38.28.25,0,.49,0,.74,0,4.3,12.8,8.6,25.6,12.84,38.24h13.44c2.63-6.11,19.31-61.89,19.25-64.37h-16.82c-3.3,12.57-6.57,25.01-9.84,37.45Z"/>
  <path class="cls-1" d="M424.36,177.68c-6.46-1.77-13.03-1.61-19.59-.86-2.04.24-4.09.83-6.02,1.56-3.83,1.45-7,3.83-9.7,7.19,3.59,3.5,6.94,6.77,10.39,10.14,1.08-.95,1.81-1.8,2.72-2.35,1.58-.94,3.22-2.24,4.93-2.41,3.33-.33,6.77-.27,10.09.16,3.89.5,5.78,3.31,6.24,7.04.18,1.48.03,2.99.03,4.7-1.38.09-2.45.2-3.52.21-3.18.03-6.37-.13-9.54.05-3.38.19-6.83.32-10.1,1.11-6.91,1.69-11.76,5.9-13.26,13.08-.57,2.74-.62,5.71-.25,8.49.85,6.34,3.89,11.61,9.93,14.16,8.83,3.72,17.66,4.09,25.85-2.01.32-.24.69-.4,1.26-.73.18,1.63.33,2.98.49,4.49h15.55c.14-.85.31-1.38.31-1.9.01-14.15.21-28.31-.06-42.46-.2-10.36-5.75-16.93-15.77-19.67ZM423.2,221.77c-.65,3.63-3.46,6.26-7.13,6.65-2.48.26-5.03.29-7.51.04-3.97-.4-5.99-2.88-5.97-6.84.02-3.95,2.09-6.46,6.12-6.66,4.77-.24,9.57-.06,14.95-.06-.15,2.57-.07,4.76-.44,6.86Z"/>
  <path class="cls-1" d="M125.74,178.21c-8.46-2.66-17.08-2.62-25.63-.41-4.56,1.18-8.21,3.92-11.36,7.78,3.56,3.45,6.98,6.76,10,9.69,2.98-1.66,5.29-3.65,7.91-4.22,3.12-.68,6.57-.57,9.75-.05,4.63.75,6.64,3.59,6.8,8.31.03,1.07,0,2.15,0,3.77-4.58,0-8.63-.06-12.68.02-4.27.08-8.56.17-12.64,1.72-6.23,2.37-10.24,6.71-11.37,13.33-.4,2.35-.36,4.83-.13,7.21.77,7.86,5.91,13.88,13.56,15.99,1.79.49,3.64.86,5.48,1.01,6.05.46,11.84-.25,16.73-4.33.35-.29.84-.41,1.37-.66.15,1.59.28,2.87.39,4.1,3.91.75,13.5.57,15.8-.27.06-.62.17-1.27.17-1.92,0-13.71.09-27.43-.02-41.14-.08-10.11-4.98-17.03-14.13-19.92ZM123.07,220.89c-.48,4.28-3.41,7.22-7.7,7.57-2.59.21-5.26.26-7.83-.1-3.52-.5-5.3-3.05-5.27-6.77.03-3.68,1.91-6.29,5.51-6.52,4.98-.32,9.99-.08,15.32-.08,0,2.23.17,4.09-.03,5.91Z"/>
  <path class="cls-1" d="M277.21,177.9c-6.75-1.98-13.65-1.91-20.54-1.07-2.25.28-4.53.92-6.63,1.8-3.53,1.48-6.6,3.68-8.56,6.47,3.34,3.64,6.44,7.02,9.79,10.68,1.2-1.04,1.94-1.87,2.85-2.44,1.37-.86,2.78-1.85,4.31-2.25,3.76-.99,7.59-.88,11.36.12,2.79.75,4.64,2.59,5.22,5.36.41,1.96.3,4.03.44,6.31-1.78.08-3.07.16-4.36.19-4.82.13-9.65.07-14.46.38-11.96.78-18.97,8.89-18.16,20.8.61,8.93,6.48,15.74,15.16,17.53,1.39.29,2.81.51,4.23.6,6.06.38,11.83-.36,16.68-4.49.29-.25.7-.35,1.19-.59.13,1.54.25,2.83.35,4.06,3.17.76,13.19.69,15.72-.08.08-.29.23-.6.23-.91,0-14.69.23-29.39-.1-44.08-.21-9.29-5.78-15.77-14.74-18.4ZM274.99,222.36c-.68,3.54-3.33,5.46-6.65,5.98-2.67.42-5.49.37-8.19.07-3.75-.42-5.7-3.01-5.66-6.84.04-3.77,2.11-6.37,5.92-6.58,4.8-.26,9.63-.06,15.14-.06-.18,2.71-.11,5.12-.55,7.43Z"/>
  <path class="cls-1" d="M55.74,214.84c-.23,0-.46.01-.7.02-4.25-12.57-8.49-25.14-12.71-37.62h-17.31c.47,1.49.77,2.53,1.14,3.54,1.5,4.12,3.01,8.24,4.53,12.35,5.08,13.79,10.18,27.56,15.2,41.37.42,1.15.67,2.59.37,3.74-.68,2.64-1.71,5.2-2.67,7.77-1.08,2.91-3.2,4.31-6.33,4.27-1.5-.02-2.99.12-4.86.21-.03,5.05-.14,9.8.06,14.71,3.26,0,6.08.13,8.89-.02,8.3-.45,13.5-4.9,16.32-12.59,8.88-24.18,17.85-48.34,26.76-72.51.31-.85.44-1.76.68-2.76h-17.19c-4.09,12.61-8.14,25.07-12.19,37.53Z"/>
  <path class="cls-1" d="M356.06,214.82c-.23.01-.47.02-.7.03-4.25-12.57-8.51-25.14-12.76-37.71-5.92-.07-11.44-.13-17.3.02.5,1.56.79,2.6,1.16,3.61,1.73,4.74,3.47,9.47,5.21,14.21,4.84,13.17,9.7,26.34,14.5,39.53.39,1.07.76,2.4.48,3.43-.77,2.85-1.82,5.63-2.91,8.38-1.03,2.6-3.03,3.93-5.88,3.94-1.61,0-3.22.13-4.95.2v14.73c3.07,0,5.9.13,8.71-.02,8.29-.45,13.52-4.87,16.34-12.57,8.88-24.19,17.85-48.35,26.76-72.52.31-.85.45-1.77.7-2.78h-17.2c-4.09,12.6-8.14,25.06-12.18,37.52Z"/>
  <path class="cls-1" d="M541.53,217c-1.17-7.52-6.65-12.64-14.94-14.18-3.65-.68-7.39-.89-11.09-1.34-1.96-.24-3.97-.33-5.85-.86-3.91-1.11-4.9-5.52-1.9-8.28.85-.78,2-1.52,3.11-1.7,2.24-.37,4.57-.6,6.83-.44,4.29.31,8.43,1.31,11.84,3.92,3.4-3.44,6.61-6.69,10.09-10.21-2.38-2.67-5.38-4.44-8.75-5.49-7.9-2.47-16.02-3.05-24.03-1.1-9.39,2.28-17.78,8.73-16.76,21.81.56,7.16,4.04,12.28,11,14.44,3.42,1.06,7.06,1.44,10.62,1.99,3.35.52,6.75.74,10.08,1.34,2.28.41,3.55,2.06,3.81,4.39.27,2.33-.75,4.17-3.05,5.31-1.07.53-2.23.93-3.4,1.19-3.93.88-7.85.47-11.74-.32-3.73-.76-6.88-2.68-9.71-4.86-3.56,3.64-6.98,7.13-10.58,10.8,3.45,3.79,8.03,6.45,13.34,7.78,6.01,1.51,12.17,1.7,18.31,1.18,5.17-.44,10.15-1.72,14.57-4.66,7.54-5.01,9.51-12.3,8.19-20.71Z"/>
  <path class="cls-1" d="M477.01,227.73c-4-.14-5.57-1.7-5.74-5.61-.01-.33,0-.66,0-.99,0-8.77,0-17.54,0-26.31,0-.94.14-1.89.25-3.22h10.79v-12.41c-3.74-.71-7.39.25-11.18-.72v-18.46c-5.65-.05-10.94-.09-16.57,0v18.65c-2.34.18-4.35.33-6.5.5v12.27c2.09.16,4.01.31,6.33.49.06,1.36.15,2.43.16,3.51.01,5.26,0,10.52,0,15.79,0,4.17-.14,8.34.06,12.5.35,7.57,3.36,13.64,10.73,16.64,5.42,2.21,11.13,1.59,16.72,1.37.81-3.59.69-11.51-.2-13.99-1.57,0-3.21.05-4.85,0Z"/>
  <path class="cls-1" d="M501.67,255.51c0,.29,0,.59,0,.88,6.92,2.2,13.84,4.4,21.3,6.76.25-4.98.23-9.45.02-14.43-7.48,2.38-14.4,4.58-21.32,6.78Z"/>
</svg>